<?xml version="1.0" encoding="UTF-8"?>
<svg width="33px" height="30px" viewBox="0 0 33 30" version="1.1" xmlns="http://www.w3.org/2000/svg" xmlns:xlink="http://www.w3.org/1999/xlink">
    <!-- Generator: Sketch 57.1 (83088) - https://sketch.com -->
    <title>logo</title>
    <desc>Created with Sketch.</desc>
    <g id="Welcome" stroke="none" stroke-width="1" fill="none" fill-rule="evenodd">
        <g id="랜딩-v.2.5.2" transform="translate(-240.000000, -18.000000)" fill="#000000" fill-rule="nonzero">
            <g id="Nav" transform="translate(240.000000, 18.000000)">
                <g id="logo">
                    <g transform="translate(0.500000, 0.000000)" id="Path">
                        <path d="M1.70545872,9.80917431 C3.17972477,9.80917431 4.61366972,9.80917431 6.09151376,9.80917431 C6.36784404,16.5320642 6.64334862,23.2365138 6.92036697,29.9781193 C4.91724771,29.9781193 2.94880734,29.9781193 0.89353211,29.9781193 C1.16366972,23.2694037 1.43394495,16.5531193 1.70545872,9.80917431 Z"></path>
                        <path d="M18.9275229,29.9878899 C16.9029358,29.9878899 14.948945,29.9878899 12.8972477,29.9878899 C13.1691743,23.2735321 13.4412385,16.556422 13.7144037,9.81068807 C15.1786239,9.81068807 16.5977064,9.81068807 18.0983945,9.81068807 C18.3740367,16.5170642 18.6494037,23.2202752 18.9275229,29.9878899 Z"></path>
                        <path d="M25.7240367,9.7807458 C27.1337615,9.7807458 28.4730275,9.78027523 29.8124312,9.78206422 C29.895,9.78220183 29.9775688,9.79926606 30.1084404,9.81385321 C30.3824312,16.533578 30.6557339,23.2395413 30.9306881,29.9805963 C28.9113303,29.9805963 26.9288532,29.9805963 24.9023394,29.9805963 C25.176055,23.2497248 25.4488073,16.5452752 25.7240367,9.7807458 Z"></path>
                        <path d="M15.8551376,7.81252294 C13.7409633,7.78417431 11.9584404,5.97550459 11.9983486,3.8690367 C12.0393578,1.70188073 13.6687156,-0.0502293578 16.0161468,0.00495412844 C18.1933486,0.056146789 19.8009633,1.67215596 19.8142397,3.92917431 C19.8268349,6.08463303 17.9980734,7.8412844 15.8551376,7.81252294 Z"></path>
                        <path d="M7.80000031,3.8962844 C7.79876147,6.03495413 6.04224771,7.81321101 3.93206422,7.8122481 C1.76931193,7.8112844 0.0283486239,6.05944954 0.000275229358,3.90206422 C-0.026146789,1.8666055 1.59192661,-0.014587156 3.92862385,0.000137614679 C6.17724771,0.0141743119 7.80082569,1.75582569 7.80000031,3.8962844 Z"></path>
                        <path d="M31.8110092,3.90977064 C31.805367,6.04981651 30.0522936,7.81293578 27.9308257,7.81238545 C25.7783945,7.81183486 23.9888532,6.03412844 24.0092202,3.88940367 C24.0304128,1.66169725 25.731055,-0.0177522936 27.9481651,0.00110091743 C30.3288991,0.0211926606 31.8550459,1.93155963 31.8110092,3.90977064 Z"></path>
                    </g>
                </g>
            </g>
        </g>
    </g>
</svg>