<?xml version="1.0" encoding="UTF-8"?>
<svg width="202px" height="181px" viewBox="0 0 202 181" version="1.1" xmlns="http://www.w3.org/2000/svg" xmlns:xlink="http://www.w3.org/1999/xlink">
    <!-- Generator: Sketch 57.1 (83088) - https://sketch.com -->
    <title>포트나이트</title>
    <desc>Created with Sketch.</desc>
    <g id="Welcome" stroke="none" stroke-width="1" fill="none" fill-rule="evenodd">
        <g id="ui-0.2" transform="translate(-216.000000, -713.000000)" fill="#000000" fill-rule="nonzero">
            <g id="본문" transform="translate(0.000000, 108.000000)">
                <g id="모집글들" transform="translate(109.000000, 32.000000)">
                    <g id="모집글-5" transform="translate(0.000000, 544.000000)">
                        <g id="포트나이트" transform="translate(107.000000, 29.000000)">
                            <path d="M60.3333333,0 L60.3333333,181 L100.555556,170.944444 L100.555556,110.611111 L140.777778,110.611111 L140.777778,70.3888889 L100.555556,70.3888889 L100.555556,40.2222222 L145.373478,40.2222222 L160.888889,0 L60.3333333,0 Z M0,20.1111111 L10.0555556,70.3888889 L0,170.944444 L40.2222222,157.019853 L40.2222222,135.730361 L23.1356332,141.661571 L30.0684681,72.3921466 L30.3630637,69.387261 L29.7738715,66.441298 L24.5300562,40.2222222 L40.2222222,40.2222222 L40.2222222,20.1111111 L0,20.1111111 Z M174.518883,20.1111111 L166.80046,40.5953779 L176.639971,39.9669056 L171.337235,66.441298 L170.748049,69.387261 L171.042647,72.3921466 L178.407557,145.962674 L120.666667,133.668188 L120.666667,154.152451 L201.111111,170.944444 L191.055556,70.3888889 L201.111111,20.1111111 L174.518883,20.1111111 Z" id="Shape"></path>
                        </g>
                    </g>
                </g>
            </g>
        </g>
    </g>
</svg>