<?xml version="1.0" encoding="UTF-8"?>
<svg width="170px" height="190px" viewBox="0 0 170 190" version="1.1" xmlns="http://www.w3.org/2000/svg" xmlns:xlink="http://www.w3.org/1999/xlink">
    <!-- Generator: Sketch 57.1 (83088) - https://sketch.com -->
    <title>하스스톤 아이콘</title>
    <desc>Created with Sketch.</desc>
    <defs>
        <filter x="-15.5%" y="-16.4%" width="131.0%" height="132.7%" filterUnits="objectBoundingBox" id="filter-1">
            <feOffset dx="0" dy="0" in="SourceAlpha" result="shadowOffsetOuter1"></feOffset>
            <feGaussianBlur stdDeviation="16" in="shadowOffsetOuter1" result="shadowBlurOuter1"></feGaussianBlur>
            <feColorMatrix values="0 0 0 0 0   0 0 0 0 0   0 0 0 0 0  0 0 0 0.5 0" type="matrix" in="shadowBlurOuter1" result="shadowMatrixOuter1"></feColorMatrix>
            <feMerge>
                <feMergeNode in="shadowMatrixOuter1"></feMergeNode>
                <feMergeNode in="SourceGraphic"></feMergeNode>
            </feMerge>
        </filter>
    </defs>
    <g id="Welcome" stroke="none" stroke-width="1" fill="none" fill-rule="evenodd">
        <g id="ui-0.5" transform="translate(-982.000000, -869.000000)" fill="#000000" fill-rule="nonzero">
            <g id="모집글-2" filter="url(#filter-1)" transform="translate(982.000000, 869.000000)">
                <g id="현재상태" transform="translate(32.000000, 31.000000)">
                    <g id="하스스톤-아이콘" transform="translate(-0.000000, 0.000000)">
                        <path d="M41.6307051,0.46473029 C38.1605136,0.3978752 35.9834025,0.535269656 35.9834025,0.535269656 C35.6594626,0.555005573 35.3443489,0.648688007 35.0622401,0.809128684 L5.31950197,17.8049785 L5.42323657,17.7510379 C5.42323657,17.7510379 5.16499566,17.8948015 5.03319497,17.9958504 C4.90139427,18.0968907 4.77054938,18.2200532 4.63900426,18.3609956 C4.37591295,18.6428781 4.11476002,19.0060667 3.84647308,19.4979245 C3.30989921,20.4816443 2.73431114,21.9819063 2.17427386,24.5020744 C1.05419971,29.5424106 0,38.6832635 0,55.7676349 C0,74.2006355 4.92177378,86.0006124 12.0414943,93.1203314 C19.1612133,100.24005 28.2758352,102.506224 36.1161826,102.506224 C44.1588613,102.506224 53.0364866,99.1394757 60.0539416,93.2448133 C67.0713966,87.3501509 72.2323651,78.7828485 72.2323651,68.5145228 C72.2323651,60.9776725 71.7284276,53.9367016 70.0082988,48.4896271 C69.1482344,45.7660888 67.9795168,43.4066122 66.2489632,41.6348542 C64.5184096,39.8630984 62.1410788,38.7717842 59.4854772,38.7717842 C50.2793921,38.7717842 43.2789479,43.4762378 36.7385897,50.016598 C36.1313459,50.6242651 35.9497844,51.5378153 36.2785193,52.3315014 C36.6072542,53.1251876 37.3815922,53.6428161 38.2406639,53.6431535 C38.2406639,53.6431535 41.8560425,53.6503768 45.3775934,54.1535262 C47.1383677,54.4050669 48.8702449,54.8027188 49.950208,55.2655604 C50.4901895,55.4969802 50.8504548,55.7467215 50.9709554,55.8672199 C50.9620305,57.6824575 50.446984,62.8831156 48.9709538,67.3112039 C48.2265271,69.5444862 47.2337421,71.5850038 46.1078838,72.9253115 C44.9820256,74.265617 43.9059481,74.8879668 42.4896266,74.8879668 C39.3029046,74.8879668 36.0728963,72.3209624 33.6348542,68.6638994 C31.1968122,65.0068406 29.7427386,60.3706784 29.7427386,57.8921162 C29.7427386,55.7676349 29.7890523,48.1339932 32.7593364,41.203319 C35.7296247,34.2726448 41.1323188,28.1493776 53.1120332,28.1493776 C59.0133707,28.1493776 63.3661695,30.0598259 66.8132785,32.9626556 C70.2603876,35.8654853 72.7656886,39.8266147 74.5352689,43.8713701 C78.0470238,51.8982384 78.5891298,59.9452171 78.5975109,60.0705402 C78.5779657,81.6350433 67.9113507,95.2700091 57.1120321,103.755188 C46.3028007,112.248156 35.5311195,115.336099 35.5311195,115.336099 C34.7186356,115.570041 34.122181,116.263451 34.0123253,117.101777 C33.9024696,117.940103 34.3001222,118.763783 35.024896,119.19917 C45.7901825,125.658341 52.9546644,128 72.2323651,128 C72.737116,128 73.2254692,127.820794 73.6099596,127.493776 C80.4920065,121.630059 96.3941911,115.099584 96.3941911,115.099584 C96.7916957,114.939762 97.131598,114.663501 97.3692941,114.307055 C97.3692941,114.307055 99.6755566,110.815655 101.86722,104.240663 C104.058884,97.6656741 106.224066,87.870908 106.224066,74.8879668 C106.224066,48.9220844 97.3878833,33.3622684 84.5560161,16.253112 C77.6132111,6.99603875 65.3819602,3.25161767 55.0373444,1.61825737 C49.8650354,0.80157679 45.1008967,0.531585381 41.6307051,0.46473029 Z M38.145228,4.71369295 C38.9583116,4.69472911 40.1105538,4.68350513 41.6224069,4.71369295 C44.9239996,4.77961773 49.4544667,5.04074665 54.373444,5.81742728 C64.2114008,7.37078897 75.3494445,11.0620534 81.1535275,18.8008291 C93.8154235,35.6833747 101.975104,49.8662974 101.975104,74.8879668 C101.975104,87.3988015 99.8913232,96.7243674 97.8340244,102.896266 C95.8786539,108.762382 94.2119983,111.229731 94.0331956,111.502075 C92.7935989,111.994062 79.4975283,117.36508 71.6141071,123.73029 C55.7767361,123.68814 49.2222672,122.07442 41.1576766,117.705394 C45.3225056,116.137978 51.7929661,113.339316 59.7344409,107.099584 C71.2322571,98.0655843 82.8547718,83.0318112 82.8547718,60.0165975 C82.8547731,59.9723051 82.8533894,59.9280234 82.8506227,59.8838174 C82.8506227,59.8838174 82.3239106,51.0764657 78.4273867,42.1701237 C76.4791247,37.7169538 73.6732224,33.1801579 69.5518667,29.7095436 C65.4306109,26.2389293 59.9575837,23.9004149 53.1120332,23.9004149 C39.5979717,23.9004149 32.2537778,31.5862764 28.8506221,39.5269715 C25.4474665,47.4676666 25.4937759,55.7676349 25.4937759,57.8921162 C25.4937759,61.7869979 27.2264243,66.7110018 30.0995856,71.020748 C32.9727469,75.3304899 37.1784232,79.1369295 42.4896266,79.1369295 C45.3222676,79.1369295 47.6984724,77.6347979 49.3609959,75.6556014 C51.0235193,73.676407 52.1552157,71.2024017 53.0041499,68.6556011 C54.7020163,63.5620021 55.2365145,58.2461971 55.2365145,55.7676349 C55.2365145,54.6168734 54.6678822,53.5558501 53.9751037,52.8630695 C53.2823252,52.170291 52.4807648,51.7229368 51.6265555,51.3568462 C49.9181368,50.6246671 47.9321717,50.2256385 45.9751037,49.9460589 C44.8894619,49.7909654 44.8217547,49.872777 43.8298747,49.7925311 C48.6059531,45.8341317 53.4115192,43.0207469 59.4854772,43.0207469 C61.0788382,43.0207469 62.1537896,43.5227937 63.2116177,44.6058097 C64.2694458,45.6888235 65.2252096,47.4455295 65.9585062,49.7676343 C67.4250994,54.4118461 67.9834025,61.1800039 67.9834025,68.5145228 C67.9834025,77.3665291 63.584205,84.7328366 57.3236517,89.9917012 C51.0630984,95.2505658 42.9448732,98.2572614 36.1161826,98.2572614 C29.0851606,98.2572614 21.2039319,96.2744724 15.0456426,90.1161831 C8.88735336,83.9578938 4.24896266,73.4508168 4.24896266,55.7676349 C4.24896266,38.860305 5.31924469,29.9430666 6.32365145,25.4232368 C6.82585441,23.1633219 7.31250722,22.0079822 7.57261384,21.5311211 C7.6575931,21.3753117 7.66227758,21.3822481 7.68464837,21.3526966 L36.7012456,4.77178434 C36.8582172,4.7629465 37.3321443,4.73355345 38.145228,4.71369295 Z M37.887966,7.59751043 C37.6158008,7.64328641 37.3470879,7.7426722 37.0995859,7.90041494 C36.1095776,8.53138589 35.8192863,9.84401665 36.4481328,10.8340249 L38.730291,14.4190872 C39.3612619,15.4090955 40.6738919,15.6993859 41.6639001,15.0705394 C42.6539084,14.4395685 42.9441997,13.1269377 42.3153532,12.1369294 L40.033195,8.55186717 C39.5599668,7.80936094 38.7044637,7.46018268 37.887966,7.59751043 Z M29.2323659,13.307054 C28.9601986,13.3527303 28.6914857,13.4527469 28.4439837,13.6099585 C27.4539754,14.2409295 27.1636841,15.5535602 27.7925306,16.5435685 L30.0746888,20.1286299 C30.7056598,21.1186382 32.0182897,21.4089295 33.008298,20.780083 C33.9983063,20.149112 34.2885975,18.8364821 33.659751,17.8464738 L31.3775928,14.2614107 C30.9043646,13.5189045 30.0488636,13.1700249 29.2323659,13.307054 Z M20.7344406,18.2199173 C20.4622733,18.2656935 20.1935604,18.3650788 19.9460584,18.5228216 C18.9560501,19.1537925 18.6657588,20.4664224 19.2946053,21.4564307 L21.5767635,25.041493 C22.2077344,26.0315013 23.5203643,26.3217925 24.5103726,25.6929461 C25.5003809,25.0619751 25.7906722,23.7493452 25.1618257,22.7593369 L22.8796675,19.1742747 C22.4064393,18.4317684 21.5509383,18.0825887 20.7344406,18.2199173 Z M12.3941901,23.9294608 C12.1220249,23.9751372 11.853312,24.0751535 11.6058099,24.2323651 C10.6158016,24.8633361 10.3255104,26.175966 10.9543568,27.1659743 L13.2365151,30.7510365 C13.867486,31.7410448 15.1801159,32.0313361 16.1701242,31.4024896 C17.1601325,30.7715187 17.4504238,29.4588888 16.8215773,28.4688805 L14.5394191,24.8838182 C14.0661909,24.141312 13.2106899,23.7924318 12.3941901,23.9294608 Z M89.2614108,42.9958501 C88.5119789,42.9796084 87.8094451,43.3594782 87.4126898,43.995479 C87.0159345,44.6314799 86.983676,45.4294863 87.3278014,46.0954365 C89.2085516,49.8569348 92.6741712,60.9205303 93.4979261,66.6887967 C93.6044898,67.4405412 94.104073,68.0783014 94.8084323,68.3617687 C95.5127916,68.6452359 96.3148807,68.5313297 96.9124716,68.0629701 C97.5100626,67.5946104 97.8123354,66.8429772 97.7053934,66.0912863 C96.7658288,59.5120672 93.4968426,48.931447 91.1286302,44.19502 C90.7809963,43.4761955 90.0596996,43.0129627 89.2614108,42.9958501 Z M10.5892116,51.4896263 C9.41752576,51.5079416 8.4818797,52.4714344 8.49792531,53.6431535 C8.49792531,58.8771553 9.25347373,66.3039469 11.7219914,73.4564318 C11.9617282,74.1841295 12.5746835,74.7263946 13.3261824,74.8756163 C14.0776812,75.0248381 14.851316,74.757902 15.3508942,74.1770068 C15.8504724,73.5961116 15.9986091,72.7912382 15.7385889,72.0705392 C13.4822602,65.5328664 12.746888,58.4579484 12.746888,53.6431535 C12.7547517,53.0689055 12.5298155,52.5159321 12.1233322,52.1102304 C11.7168488,51.7045286 11.1634434,51.4806573 10.5892116,51.4896263 L10.5892116,51.4896263 Z M95.7966808,74.8589209 C94.7066164,74.9220663 93.8418759,75.8011594 93.7966813,76.8921154 C93.6375789,79.689728 93.3215878,82.5107418 92.9253104,85.1991709 C92.805379,85.9541191 93.1002344,86.7153004 93.6974398,87.1924545 C94.2946451,87.6696087 95.102135,87.7891775 95.8119905,87.5055658 C96.5218459,87.2219542 97.0246353,86.5788839 97.1286307,85.821576 C97.5396562,83.0330922 97.8692695,80.0882637 98.0373436,77.1327809 C98.0781648,76.5601685 97.8855408,75.9954053 97.5033285,75.5670771 C97.1211161,75.1387489 96.5818455,74.8833107 96.0082982,74.8589209 C95.9378029,74.8554059 95.8671761,74.8554059 95.7966808,74.8589209 L95.7966808,74.8589209 Z M17.8008293,79.1120224 C17.0125592,79.1095932 16.2877263,79.5437681 15.9179035,80.2399052 C15.5480807,80.9360423 15.5940595,81.7797108 16.0373441,82.4315347 C17.1157776,84.0684837 18.3432073,85.6129179 19.7427391,87.0124476 C20.2755942,87.5674488 21.0668582,87.7910182 21.8113658,87.5969324 C22.5558734,87.4028465 23.1372863,86.8214336 23.3313722,86.076926 C23.5254581,85.3324184 23.3018886,84.5411544 22.7468874,84.0082993 C21.5757968,82.8372066 20.524886,81.5178399 19.5850622,80.0912868 C19.1955224,79.4827125 18.5233948,79.1138236 17.8008293,79.1120224 L17.8008293,79.1120224 Z M86.7510365,96.8257264 C86.4788714,96.8715026 86.2101585,96.970888 85.9626564,97.1286307 C84.9726481,97.7596017 84.6823568,99.0722316 85.3112033,100.06224 L87.5933615,103.647302 C88.2243325,104.63731 89.5369624,104.927602 90.5269707,104.298755 C91.516979,103.669909 91.8072702,102.355154 91.1784238,101.365146 L88.8962656,97.7800838 C88.4230373,97.0375776 87.5675363,96.6883978 86.7510365,96.8257264 Z M78.2531112,102.53527 C77.9809461,102.580946 77.7122332,102.680963 77.4647311,102.838174 C76.4747228,103.469145 76.1844315,104.781775 76.813278,105.771783 L79.0954362,109.356846 C79.7264072,110.346854 81.0390371,110.637145 82.0290454,110.008299 C83.0190537,109.377328 83.3093449,108.064698 82.6804985,107.07469 L80.3983402,103.489627 C79.925112,102.747121 79.069611,102.398241 78.2531112,102.53527 Z M69.7551859,108.908714 C69.4830207,108.95439 69.2143079,109.054407 68.9668058,109.211618 C67.9767975,109.842589 67.6865062,111.155219 68.3153527,112.145227 L70.5975109,115.73029 C71.2284819,116.720298 72.5411118,117.010589 73.5311201,116.381743 C74.5211284,115.750772 74.8114196,114.438142 74.1825731,113.448134 L71.9004149,109.863071 C71.4271867,109.120565 70.5716857,108.771685 69.7551859,108.908714 Z" id="Shape"></path>
                    </g>
                </g>
            </g>
        </g>
    </g>
</svg>