<?xml version="1.0" encoding="UTF-8"?>
<svg width="168px" height="180px" viewBox="0 0 168 180" version="1.1" xmlns="http://www.w3.org/2000/svg" xmlns:xlink="http://www.w3.org/1999/xlink">
    <!-- Generator: Sketch 57.1 (83088) - https://sketch.com -->
    <title>롤 아이콘</title>
    <desc>Created with Sketch.</desc>
    <defs>
        <filter x="-15.5%" y="-16.4%" width="131.0%" height="132.7%" filterUnits="objectBoundingBox" id="filter-1">
            <feOffset dx="0" dy="0" in="SourceAlpha" result="shadowOffsetOuter1"></feOffset>
            <feGaussianBlur stdDeviation="16" in="shadowOffsetOuter1" result="shadowBlurOuter1"></feGaussianBlur>
            <feColorMatrix values="0 0 0 0 0   0 0 0 0 0   0 0 0 0 0  0 0 0 0.5 0" type="matrix" in="shadowBlurOuter1" result="shadowMatrixOuter1"></feColorMatrix>
            <feMerge>
                <feMergeNode in="shadowMatrixOuter1"></feMergeNode>
                <feMergeNode in="SourceGraphic"></feMergeNode>
            </feMerge>
        </filter>
    </defs>
    <g id="Welcome" stroke="none" stroke-width="1" fill="none" fill-rule="evenodd">
        <g id="ui-0.5" transform="translate(-546.000000, -274.000000)" fill="#000000" fill-rule="nonzero">
            <g id="모집글-1" filter="url(#filter-1)" transform="translate(545.000000, 275.000000)">
                <g id="롤-아이콘" transform="translate(32.000000, 31.000000)">
                    <path d="M15.9,0 C14.8963445,0 13.9786322,0.561714873 13.5293456,1.45177533 C13.080059,2.34183579 13.1762895,3.40723286 13.7779303,4.20393225 L21.2,14.0182401 L21.2,21.3430405 L21.0447259,21.1377203 C8.2633458,30.732348 0,45.9630736 0,63.0743803 C0,79.496531 7.62238845,94.1747776 19.5385745,103.81505 L13.7779303,111.432433 C13.1762901,112.229132 13.08006,113.294529 13.5293465,114.184589 C13.978633,115.074649 14.8963448,115.636364 15.9,115.636364 L90.1,115.636364 C90.8856708,115.636364 91.6307331,115.290162 92.1340817,114.691891 L105.384082,98.9232956 C106.04266,98.1401067 106.18499,97.0498036 105.749232,96.1261093 C105.313474,95.202415 104.378288,94.6120694 103.35,94.6115704 L95.3585937,94.6115704 C102.022194,85.8211016 106,74.9056807 106,63.0743803 C106,34.0772822 82.2387405,10.5123968 53,10.5123968 C52.1105142,10.5123968 51.2283557,10.536656 50.35,10.5791258 L50.35,2.62809928 C50.3498537,1.1767003 49.163494,0 47.7,0 L15.9,0 Z M21.2,5.25619846 L45.05,5.25619846 L45.05,97.2396695 C45.0501463,98.6910685 46.236506,99.8676236 47.7,99.8677687 L97.6928701,99.8677687 L88.8578125,110.380165 L21.2,110.380165 L25.9720696,104.0717 C26.31513,103.616802 26.5003541,103.063922 26.5,102.495868 L26.5,13.140496 C26.5003543,12.5724417 26.3151302,12.0195614 25.9720696,11.564663 L21.2,5.25619846 Z M53,15.7685952 C79.3741594,15.7685952 100.7,36.9181891 100.7,63.0743803 C100.7,75.2160513 96.0735293,86.2375896 88.5058607,94.6115704 L81.0165049,94.6115704 C89.8286665,86.9025776 95.4,75.626676 95.4,63.0743803 C95.4,39.8827717 76.384872,21.0247935 53,21.0247935 C52.1107421,21.0247935 51.2270387,21.0585383 50.35,21.1120543 L50.35,15.9071864 C51.2327627,15.858812 52.1039369,15.7685952 53,15.7685952 Z M53,26.2809918 C73.520328,26.2809918 90.1,42.7236418 90.1,63.0743803 C90.1,76.2297748 83.1601614,87.7368414 72.7197259,94.2471266 C72.7179984,94.2488351 72.7162732,94.250546 72.7145504,94.2522593 C72.5185167,94.3749836 72.310701,94.4922914 72.1089857,94.6115704 L50.35,94.6115704 L50.35,26.378518 C51.2260396,26.3173358 52.1071275,26.2809918 53,26.2809918 Z M21.2,27.8362931 L21.2,35.3150828 C14.6207496,42.7221516 10.6,52.4383263 10.6,63.0743803 C10.6,73.7104343 14.6210809,83.4246352 21.2,90.8336778 L21.2,98.3278655 C11.4424967,89.6680869 5.3,77.0995679 5.3,63.0743803 C5.3,49.0516499 11.4473897,36.4970993 21.2,27.8362931 Z M21.2,44.1695194 L21.2,81.9792411 C17.8512374,76.4541015 15.9,70.0042915 15.9,63.0743803 C15.9,56.1444691 17.8512692,49.6944383 21.2,44.1695194 Z" id="Shape"></path>
                </g>
            </g>
        </g>
    </g>
</svg>