<?xml version="1.0" encoding="UTF-8"?>
<svg width="181px" height="181px" viewBox="0 0 181 181" version="1.1" xmlns="http://www.w3.org/2000/svg" xmlns:xlink="http://www.w3.org/1999/xlink">
    <!-- Generator: Sketch 57.1 (83088) - https://sketch.com -->
    <title>Overwatch</title>
    <desc>Created with Sketch.</desc>
    <g id="Welcome" stroke="none" stroke-width="1" fill="none" fill-rule="evenodd">
        <g id="ui-0.2" transform="translate(-1518.000000, -163.000000)" fill="#000000" fill-rule="nonzero">
            <g id="본문" transform="translate(0.000000, 108.000000)">
                <g id="모집글들" transform="translate(109.000000, 32.000000)">
                    <g id="모집글-4" transform="translate(1292.000000, 0.000000)">
                        <g id="Overwatch" transform="translate(117.000000, 23.000000)">
                            <path d="M90.5,0 C40.5912174,0 0,40.5912174 0,90.5 C0,140.408783 40.5912174,181 90.5,181 C140.408783,181 181,140.408783 181,90.5 C181,40.5912174 140.408783,0 90.5,0 Z M90.5,7.86952588 C110.295891,7.86952588 128.494261,14.877413 142.72637,26.5440435 L132.492,38.5057826 C120.622972,28.861203 105.793517,23.6003038 90.5,23.6086957 C74.6034783,23.6086957 59.9896957,29.2039565 48.508,38.5018478 L38.2736304,26.5440435 C52.9907444,14.4523009 71.452603,7.85093117 90.5,7.86952588 Z M141.530196,120.117109 L109.51287,89.6225435 L94.4347826,54.2881957 L94.4347826,114.096891 L125.574652,142.789326 C115.207232,149.76064 102.993289,153.475247 90.5,153.456592 C77.5152174,153.456592 65.4472391,149.521739 55.4253478,142.773587 L86.5652174,114.092957 L86.5652174,54.2842609 L71.4871304,89.6225435 L39.4698043,120.117109 C34.2231995,111.129555 31.4648249,100.906864 31.478212,90.5 C31.478212,57.9593478 57.9593478,31.4782609 90.5,31.4782609 C123.040652,31.4782609 149.521739,57.9593478 149.521739,90.5 C149.521739,100.982261 146.767391,111.12613 141.530196,120.117109 Z" id="surface1"></path>
                        </g>
                    </g>
                </g>
            </g>
        </g>
    </g>
</svg>