<?xml version="1.0" encoding="UTF-8"?>
<svg width="232px" height="164px" viewBox="0 0 232 164" version="1.1" xmlns="http://www.w3.org/2000/svg" xmlns:xlink="http://www.w3.org/1999/xlink">
    <!-- Generator: Sketch 57.1 (83088) - https://sketch.com -->
    <title>pubg-1</title>
    <desc>Created with Sketch.</desc>
    <defs>
        <filter x="-15.5%" y="-16.4%" width="131.0%" height="132.7%" filterUnits="objectBoundingBox" id="filter-1">
            <feOffset dx="0" dy="0" in="SourceAlpha" result="shadowOffsetOuter1"></feOffset>
            <feGaussianBlur stdDeviation="16" in="shadowOffsetOuter1" result="shadowBlurOuter1"></feGaussianBlur>
            <feColorMatrix values="0 0 0 0 0   0 0 0 0 0   0 0 0 0 0  0 0 0 0.5 0" type="matrix" in="shadowBlurOuter1" result="shadowMatrixOuter1"></feColorMatrix>
            <feMerge>
                <feMergeNode in="shadowMatrixOuter1"></feMergeNode>
                <feMergeNode in="SourceGraphic"></feMergeNode>
            </feMerge>
        </filter>
    </defs>
    <g id="Welcome" stroke="none" stroke-width="1" fill="none" fill-rule="evenodd">
        <g id="ui-0.5" transform="translate(-984.000000, -274.000000)" fill="#000000" fill-rule="nonzero">
            <g id="모집글-3" filter="url(#filter-1)" transform="translate(982.000000, 275.000000)">
                <g id="현재상태" transform="translate(32.000000, 31.000000)">
                    <g id="pubg-1" transform="translate(0.000000, 0.000000)">
                        <path d="M11.2548263,0.366795367 C10.03861,0.733590734 9.13127413,1.23552124 8.45559846,2.06563707 C7.49034749,3.22393822 7.45173745,3.3976834 7.52895753,6.85328185 C7.56756757,8.84169884 7.56756757,12.3552124 7.52895753,14.7297297 C7.49034749,18.976834 7.49034749,18.976834 6.6988417,18.7258687 C5.11583012,18.1853282 1.33204633,18.4362934 0.694980695,19.1312741 C0.154440154,19.7104247 0.154440154,19.7104247 0.772200772,19.4980695 C1.23552124,19.3629344 1.38996139,19.4208494 1.27413127,19.7104247 C1.1969112,19.96139 0.907335907,20.1351351 0.694980695,20.0772201 C0.444015444,20.03861 0.28957529,20.6949807 0.28957529,21.8725869 C0.28957529,22.9150579 0.173745174,24.3629344 0.0772200772,25.03861 C-0.0579150579,26.042471 0.0772200772,26.4864865 0.83011583,27.2779923 C1.6988417,28.2046332 1.98841699,28.2818533 4.57528958,28.2818533 C6.98841699,28.2818533 7.41312741,28.3976834 7.56756757,28.8996139 C7.77992278,29.7297297 7.52895753,70.8108108 7.31660232,71.3899614 C7.2007722,71.7181467 6.38996139,71.8532819 4.82625483,71.8532819 C3.26254826,71.8532819 2.12355212,72.0656371 1.40926641,72.4710425 C0.328185328,73.1274131 0.28957529,73.1853282 0.250965251,76.003861 C0.173745174,81.7374517 0.328185328,81.9498069 4.86486486,81.9498069 L7.8957529,81.9498069 L7.77992278,88.8610039 C7.64478764,98.5907336 7.91505792,99.015444 14.9034749,99.4015444 C25.2702703,99.9420849 55.6177606,100.15444 60.5984556,99.7297297 C62.3359073,99.5945946 63.8803089,99.5559846 65.5598456,99.5945946 C67.8957529,99.6332046 68.4749035,99.5945946 68.8996139,99.1891892 C69.2664093,98.8996139 69.4015444,98.8996139 69.4015444,99.1891892 C69.4015444,99.4015444 69.5752896,99.5945946 69.7683398,99.5945946 C69.980695,99.5945946 70.1351351,99.2664093 70.1351351,98.8416988 C70.1351351,98.4362934 70,98.2239382 69.7683398,98.3397683 C69.5945946,98.4555985 69.4015444,98.3783784 69.4015444,98.1660232 C69.4015444,97.5096525 70.2702703,97.953668 70.6563707,98.8223938 C71.023166,99.6138996 71.1196911,99.6138996 79.1119691,99.6138996 C83.5714286,99.6138996 89.6911197,99.7297297 92.7220077,99.8262548 C100.888031,100.15444 113.687259,99.6911197 113.687259,99.034749 C113.687259,98.7451737 113.861004,98.5328185 114.092664,98.5328185 C114.305019,98.5328185 114.420849,98.7837838 114.266409,99.0733591 C114.131274,99.5366795 114.517375,99.6138996 116.853282,99.6138996 C118.359073,99.6525097 126.679537,99.6911197 135.366795,99.7297297 C144.015444,99.7683398 150.984556,99.6911197 150.888031,99.5173745 C150.810811,99.3822394 151.003861,99.2664093 151.312741,99.2664093 C151.679537,99.2664093 151.776062,99.4401544 151.640927,99.6911197 C151.216216,100.366795 160.637066,99.8069498 162.220077,99.015444 C164.84556,97.7220077 165,97.1814672 165.019305,89.3629344 C165.057915,85.5019305 165.15444,82.1235521 165.30888,81.7953668 C165.444015,81.3706564 165.733591,81.2934363 166.312741,81.4671815 C167.355212,81.8339768 171.274131,81.6409266 172.007722,81.2548263 C172.471042,80.965251 172.432432,80.9266409 171.891892,80.8880309 C171.486486,80.8880309 171.274131,80.7142857 171.389961,80.4247104 C171.467181,80.2123552 171.718147,80.019305 171.891892,80.0579151 C172.355212,80.1737452 172.722008,74.4015444 172.316602,73.6872587 C171.447876,72.1428571 171.312741,72.0656371 168.030888,71.8918919 L164.749035,71.7181467 L164.671815,50 L164.555985,28.3204633 L167.760618,28.3204633 C170.714286,28.3204633 170.965251,28.2432432 171.833977,27.3166023 C172.586873,26.5250965 172.741313,26.1003861 172.586873,25.0772201 C172.471042,24.4015444 172.374517,22.953668 172.374517,21.9498069 C172.374517,20.7335907 172.239382,20.0772201 171.969112,20.1544402 C171.756757,20.1930502 171.467181,20.019305 171.389961,19.7490347 C171.274131,19.4594595 171.428571,19.3822394 171.891892,19.5366795 C172.471042,19.7490347 172.471042,19.7104247 172.007722,19.2084942 C171.428571,18.5907336 167.876448,18.3011583 166.254826,18.7451737 C164.633205,19.1698842 164.498069,18.7837838 164.266409,12.2972973 C163.861004,2.27799228 163.108108,0.849420849 158.185328,0.984555985 C156.737452,1.02316602 155.3861,0.945945946 155.15444,0.849420849 C154.76834,0.501930502 148.648649,0.0772200772 145.559846,0.0772200772 C144.362934,0.115830116 142.277992,0.115830116 140.888031,0.115830116 C139.517375,0.115830116 132.393822,0.193050193 125.03861,0.231660232 C117.722008,0.27027027 110.34749,0.347490347 108.648649,0.405405405 C106.949807,0.463320463 104.864865,0.540540541 103.976834,0.521235521 C90,0.308880309 78.4169884,0.231660232 77.7992278,0.386100386 C77.3359073,0.501930502 77.007722,0.714285714 77.0849421,0.849420849 C77.1235521,0.984555985 77.007722,1.13899614 76.7953668,1.17760618 C76.6216216,1.25482625 76.4285714,1.06177606 76.4285714,0.810810811 C76.4285714,0.482625483 74.6911197,0.386100386 69.0540541,0.386100386 C63.3204633,0.386100386 61.7181467,0.501930502 61.7374517,0.810810811 C61.8146718,1.06177606 61.6023166,1.27413127 61.2741313,1.27413127 C60.984556,1.27413127 60.8108108,1.13899614 60.9073359,0.945945946 C61.3320463,0.28957529 58.996139,0.193050193 42.5868726,0.193050193 C33.4749035,0.193050193 23.1081081,0.115830116 19.5366795,0.0579150579 C14.8069498,-0.0579150579 12.5482625,0.0386100386 11.2548263,0.366795367 Z M84.4401544,10.1158301 C133.725869,10.1930502 150.03861,10.0772201 150.03861,9.78764479 C150.03861,9.45945946 150.15444,9.4980695 150.328185,9.78764479 C150.46332,10.03861 151.409266,10.2895753 152.374517,10.3281853 L154.169884,10.4440154 L154.208494,12.2393822 C154.285714,15.1158301 154.749035,44.2084942 154.710425,44.8262548 C154.594595,47.8957529 154.710425,71.042471 154.88417,79.1119691 C155.057915,87.1814672 155.019305,89.4787645 154.671815,89.6911197 C154.420849,89.8262548 153.050193,89.9034749 151.679537,89.8648649 C149.015444,89.7490347 139.285714,89.7490347 101.988417,89.7876448 C82.6447876,89.8262548 80.1351351,89.9034749 80.3088803,90.3667954 C80.4440154,90.7335907 80.2702703,90.9073359 79.8069498,90.9073359 C79.3436293,90.9073359 79.1505792,90.7335907 79.3050193,90.3667954 C79.4787645,89.9034749 77.2200772,89.8648649 61.1969112,89.8648649 C51.1583012,89.9034749 39.96139,90 36.3127413,90.1158301 C32.7027027,90.2509653 29.7683398,90.2509653 29.7683398,90.0772201 C29.7683398,89.6525097 28.5135135,89.7876448 28.030888,90.2509653 C27.7027027,90.5791506 27.4903475,90.6177606 27.3166023,90.3281853 C27.1814672,90.03861 25.4440154,89.9034749 22.6061776,89.8648649 C20.1544402,89.8262548 17.992278,89.7297297 17.8571429,89.6138996 C17.6833977,89.4980695 17.5289575,88.1467181 17.5289575,86.5250965 C17.5289575,84.1119691 17.4517375,83.6872587 16.988417,83.8610039 C16.6216216,83.996139 16.4478764,83.8223938 16.4478764,83.3590734 C16.4478764,82.8957529 16.6216216,82.7027027 16.988417,82.8571429 C17.4517375,83.030888 17.5289575,81.4478764 17.5675676,70 C17.7027027,26.9305019 17.7027027,27.4324324 17.2007722,27.2586873 C16.9111969,27.1428571 16.8339768,27.007722 17.0849421,26.8532819 C17.6254826,26.5250965 17.7027027,22.1814672 17.2007722,20.5791506 C16.9498069,19.8648649 16.8725869,19.0733591 17.0656371,18.8223938 C17.2007722,18.5714286 17.3552124,16.5444015 17.4324324,14.4015444 C17.4710425,12.2007722 17.5096525,10.2316602 17.5096525,9.94208494 C17.5482625,9.61389961 17.7606178,9.53667954 18.1853282,9.76833977 C18.5135135,9.9034749 48.3397683,10.0772201 84.4401544,10.1158301 L84.4401544,10.1158301 Z" id="Shape"></path>
                        <path d="M131.795367,19.1891892 L124.131274,19.2664093 L122.722008,20.6370656 C121.525097,21.7953668 121.274131,22.2586873 121.100386,23.957529 C120.694981,27.3745174 120.694981,32.1621622 121.023166,39.8069498 C121.196911,43.8803089 121.312741,47.8378378 121.235521,48.6293436 C121.158301,49.4208494 121.100386,56.042471 121.100386,63.3976834 L121.061776,76.7181467 L121.930502,78.1274131 C122.393822,78.8803089 123.301158,79.7104247 123.938224,80 C125.3861,80.6177606 139.84556,80.7528958 141.756757,80.1737452 C143.513514,79.6332046 144.92278,77.8378378 145.135135,75.8494208 C145.501931,72.3552124 145.34749,45.7528958 144.96139,44.7490347 L144.555985,43.7837838 L139.6139,43.7837838 C136.274131,43.7837838 134.53668,43.9189189 134.247104,44.2084942 C133.957529,44.4980695 133.822394,45.9073359 133.822394,48.0888031 L133.822394,51.5444015 L134.903475,52.1621622 L135.984556,52.8185328 L136.023166,56.8532819 C136.023166,59.0926641 136.023166,62.6833977 135.984556,64.9227799 C135.945946,67.3359073 136.100386,69.2084942 136.351351,69.5945946 C136.640927,70.0579151 136.679537,70.5212355 136.389961,71.2162162 C136.023166,72.1814672 135.984556,72.1814672 133.301158,72.046332 C130.23166,71.9111969 129.671815,71.6795367 130.23166,70.965251 C130.637066,70.4633205 130.810811,45.2895753 130.482625,33.4555985 L130.30888,27.6640927 L132.895753,27.5289575 C136.756757,27.3552124 136.718147,27.3166023 136.718147,29.9034749 C136.718147,31.1583012 136.891892,32.3166023 137.142857,32.5675676 C137.471042,32.8957529 137.471042,32.992278 137.142857,32.992278 C136.351351,32.992278 136.679537,33.996139 137.548263,34.1891892 C138.841699,34.4401544 143.918919,34.2277992 144.285714,33.8610039 C144.420849,33.6872587 144.65251,30.9073359 144.749035,27.6640927 L144.88417,21.7567568 L143.880309,20.7528958 C143.011583,19.8841699 142.258687,19.5945946 139.84556,19.2084942 C139.6139,19.1312741 135.965251,19.1312741 131.795367,19.1891892 L131.795367,19.1891892 Z M28.8996139,19.8841699 C28.5714286,20.2123552 28.4749035,22.2586873 28.5714286,27.2586873 C28.6872587,35.3281853 28.6486486,34.7104247 29.0733591,34.034749 C29.3629344,33.6100386 29.4401544,33.7065637 29.4401544,34.4594595 C29.4401544,34.96139 29.2664093,35.4633205 29.015444,35.5405405 C28.6872587,35.6563707 28.5907336,37.2007722 28.5907336,40.9073359 C28.5521236,45.4054054 28.4749035,46.2355212 27.9343629,46.7760618 C27.3938224,47.2779923 27.2779923,48.0694981 27.2779923,51.3899614 C27.2779923,53.5907336 27.3938224,55.2702703 27.5289575,55.1737452 C27.8571429,54.8455598 29.0733591,55.965251 29.0733591,56.6216216 C29.0733591,56.8725869 28.957529,57.0849421 28.8223938,57.0849421 C28.6486486,57.0849421 28.4942085,62.027027 28.4169884,68.0694981 C28.3783784,74.1119691 28.4942085,79.0540541 28.6293436,79.0540541 C28.8030888,79.0540541 29.1312741,79.4594595 29.3436293,79.96139 C29.7490347,80.8301158 29.8841699,80.8687259 33.3397683,80.8687259 C38.6679537,80.8687259 38.3783784,81.5250965 38.2818533,68.4169884 C38.2046332,62.6833977 38.1467181,57.8378378 38.0694981,57.6447876 C37.6640927,56.1003861 37.8571429,56.023166 42.972973,56.023166 C48.5135135,56.023166 50.5984556,55.6177606 51.8339768,54.3243243 L52.6640927,53.4169884 L52.7799228,37.7992278 C52.8571429,27.2779923 52.7413127,21.9111969 52.4903475,21.4478764 C51.5830116,19.7876448 50.6177606,19.6525097 39.6332046,19.5366795 C32.027027,19.4787645 29.1698842,19.5559846 28.8996139,19.8841699 L28.8996139,19.8841699 Z M43.1081081,28.5135135 C43.1467181,28.8803089 43.1467181,32.7220077 43.1853282,37.0849421 C43.1853282,41.4478764 43.3011583,44.7104247 43.3590734,44.3629344 C43.6486486,43.2818533 44.1891892,43.7065637 44.1891892,45.03861 C44.1891892,46.0810811 44.0733591,46.2934363 43.6100386,46.1196911 C43.2046332,45.984556 43.1081081,46.0810811 43.2432432,46.5444015 C43.4169884,47.0849421 43.2046332,47.1621622 41.042471,47.046332 C39.6718147,46.969112 38.4555985,46.6795367 38.1660232,46.4285714 C37.5868726,45.8494208 37.5482625,44.8069498 38.0888031,44.8069498 C38.3397683,44.8069498 38.4169884,42.2779923 38.2625483,36.5637066 C38.1853282,32.027027 38.1853282,28.2046332 38.3011583,28.1081081 C38.4362934,27.992278 39.5559846,27.8957529 40.8301158,27.8957529 C42.7606178,27.9150579 43.1081081,28.011583 43.1081081,28.5135135 L43.1081081,28.5135135 Z M59.7104247,19.7683398 C59.0926641,20.4826255 59.3050193,28.4749035 59.96139,28.3397683 C60.1737452,28.3011583 60.3861004,28.5135135 60.3861004,28.8030888 C60.3861004,29.0926641 60.1737452,29.3050193 59.96139,29.2277992 C59.6332046,29.1891892 59.4594595,29.7683398 59.3822394,31.0617761 C59.3050193,32.5675676 59.3822394,32.9343629 59.7490347,32.7220077 C60.1158301,32.5096525 60.1158301,32.5482625 59.8262548,32.972973 C59.2471042,33.7258687 58.8610039,74.5173745 59.4015444,76.9305019 C59.7297297,78.2239382 60.1158301,78.9189189 61.023166,79.5559846 L62.2200772,80.4826255 L71.6602317,80.3474903 C82.1814672,80.2123552 82.9343629,80.019305 84.0733591,77.8185328 C84.8648649,76.2741313 85.1930502,64.1312741 85,42.992278 C84.9227799,34.3822394 84.8648649,25.8108108 84.8648649,24.015444 C84.8648649,21.9305019 84.7297297,20.5984556 84.4594595,20.4054054 C84.2084942,20.2895753 83.957529,20.3667954 83.8803089,20.5791506 C83.7065637,21.1969112 83.0888031,21.1196911 83.0888031,20.4633205 C83.0888031,20.03861 82.5096525,19.9227799 80.019305,19.9227799 C75.0772201,19.9227799 75.4440154,18.7258687 75.4826255,35.3281853 C75.5212355,42.992278 75.6177606,51.4285714 75.7335907,54.015444 C75.9073359,57.4324324 75.8494208,58.8030888 75.5598456,58.8030888 C74.9034749,58.8030888 75.0965251,60.1737452 75.8108108,60.5598456 C76.2355212,60.8494208 76.3127413,61.023166 75.984556,61.2162162 C75.7335907,61.4285714 75.5212355,63.2046332 75.4440154,66.4285714 C75.3281853,70.5984556 75.2316602,71.4671815 74.6911197,72.007722 C74.0733591,72.6254826 74.015444,72.6254826 73.5714286,72.007722 C73.030888,71.3320463 71.5250965,71.2162162 70.4440154,71.7953668 C69.3629344,72.3359073 68.2432432,71.2934363 68.5328185,70 C68.7837838,68.9189189 68.957529,39.034749 68.7837838,28.2046332 L68.6486486,20.7915058 L67.1042471,19.96139 C66.0617761,19.3822394 65.3088803,19.1698842 64.8648649,19.3822394 C64.1891892,19.6718147 61.7760618,19.6718147 60.7335907,19.3436293 C60.4054054,19.3436293 59.96139,19.4787645 59.7104247,19.7683398 Z M91.7953668,19.7297297 C91.3899614,20.2702703 91.2548263,33.3397683 91.6602317,35.0965251 C91.8339768,35.7722008 91.8339768,37.4710425 91.7374517,38.8803089 C91.6023166,40.2895753 91.6216216,41.5830116 91.8146718,41.8339768 C92.2779923,42.4131274 91.8146718,43.7451737 91.1583012,43.7451737 C90.8687259,43.7451737 90.7335907,43.9189189 90.8301158,44.1119691 C90.9459459,44.3243243 90.7915058,44.7297297 90.5019305,45.03861 C89.8455598,45.6949807 89.6718147,50.7335907 90.2895753,51.1196911 C90.5019305,51.2355212 90.6563707,51.6602317 90.6563707,52.027027 C90.6563707,52.3938224 90.8301158,52.7413127 91.0617761,52.8185328 C91.3899614,52.9343629 91.4864865,56.1583012 91.4864865,64.6332046 C91.4478764,71.4092664 91.6023166,76.5057915 91.8146718,76.7760618 C91.988417,76.988417 91.988417,77.2779923 91.8532819,77.3552124 C91.6795367,77.4710425 91.6023166,78.2239382 91.6795367,79.015444 L91.8146718,80.4826255 L101.428571,80.3667954 C115.752896,80.2509653 114.92278,81.2741313 114.96139,63.5521236 C114.96139,51.6409266 114.92278,51.1003861 114.247104,50.3667954 C112.084942,48.030888 111.833977,47.5868726 112.413127,47.2779923 C113.861004,46.4864865 114.208494,44.8262548 114.285714,39.4208494 C114.324324,36.5444015 114.401544,31.3127413 114.459459,27.7992278 C114.57529,21.7567568 114.53668,21.3513514 113.803089,20.6756757 C112.683398,19.5559846 111.003861,19.3436293 101.235521,19.3050193 C94.4208494,19.3050193 92.0849421,19.3822394 91.7953668,19.7297297 L91.7953668,19.7297297 Z M105.27027,27.953668 C105.482625,28.3204633 105.482625,31.042471 105.27027,41.6023166 C105.23166,44.2277992 105.057915,44.3822394 102.355212,43.9382239 L100.810811,43.7258687 L100.598456,40.5984556 C100.482625,38.8610039 100.3861,37.2200772 100.34749,36.9305019 C100.34749,36.6409266 100.46332,34.4015444 100.598456,31.969112 L100.849421,27.5675676 L102.934363,27.5675676 C104.073359,27.5482625 105.11583,27.7220077 105.27027,27.953668 L105.27027,27.953668 Z M105.11583,53.2625483 C105.250965,53.4749035 105.405405,56.2548263 105.405405,59.4208494 C105.405405,62.5868726 105.444015,66.6602317 105.444015,68.4942085 C105.482625,70.2895753 105.405405,71.9498069 105.27027,72.1235521 C104.980695,72.5868726 101.235521,72.4131274 100.617761,71.8725869 C100.212355,71.5444015 100.15444,71.1196911 100.366795,70.1351351 C100.540541,69.4208494 100.694981,65.3474903 100.694981,61.0617761 C100.694981,54.3629344 100.772201,53.2432432 101.274131,52.8957529 C101.949807,52.3938224 104.72973,52.6447876 105.11583,53.2625483 L105.11583,53.2625483 Z" id="Shape"></path>
                    </g>
                </g>
            </g>
        </g>
    </g>
</svg>