<?xml version="1.0" encoding="utf-8"?>
<!-- Generator: Adobe Illustrator 22.1.0, SVG Export Plug-In . SVG Version: 6.00 Build 0)  -->
<svg version="1.1" id="레이어_1" xmlns="http://www.w3.org/2000/svg" xmlns:xlink="http://www.w3.org/1999/xlink" x="0px"
	 y="0px" viewBox="0 0 362.733 66.813" style="enable-background:new 0 0 362.733 66.813;" xml:space="preserve">
<style type="text/css">
	.st0{fill:#FFFFFF;}
</style>
<g>
	<g>
		<path d="M108.769,66.812c0-16.392,0-32.579,0-48.999c3.624,0,7.064,0,10.686,0c0.168,0.908,0.342,1.849,0.505,2.729
			c12.834-7.459,21.663-3.827,27.151,9.694c1.402-4.867,4.346-8.694,8.858-11.2c4.608-2.56,9.501-2.838,14.529-1.511
			c7.949,2.098,12.587,9.152,11.558,17.921c-7.656,0-15.359,0-23.312,0c-0.195,3.002,1.109,4.745,3.338,5.922
			c3.336,1.761,6.941,1.045,11.731-2.428c1.144,0.524,2.483,1.12,3.805,1.748c1.233,0.586,2.448,1.207,3.66,1.806
			c-2.128,5.567-8.555,8.828-16.767,8.798c-6.401-0.024-14.6-3.949-17.53-13.831c-1.789,5.978-4.744,10.734-10.591,12.836
			c-5.654,2.032-11.021,1.058-16.409-2.769c0,6.736,0,12.905,0,19.285C116.137,66.812,112.681,66.812,108.769,66.812z
			 M127.184,41.555c4.397,0.069,7.594-2.96,7.717-7.312c0.127-4.48-2.784-7.607-7.209-7.744c-4.595-0.143-7.956,2.986-7.989,7.439
			C119.67,38.209,122.891,41.488,127.184,41.555z M159.194,29.199c3.971,0,7.92,0,11.972,0c-1.429-4.016-3.005-5.157-6.572-4.974
			C161.3,24.393,159.947,25.618,159.194,29.199z"/>
		<path d="M67.666,30.024c2.124-7.268,7.46-11.481,15.078-12.83c7.746-1.371,14.721,0.337,20.079,6.434
			c7.334,8.345,3.77,21.674-6.953,25.996c-6.054,2.44-12.26,2.351-18.266-0.155c-5.252-2.192-8.692-6.156-10.023-11.848
			c-0.216,0.266-0.451,0.432-0.513,0.649c-2.973,10.408-14.291,14.68-24.554,12.465c-3.38-0.729-6.409-2.064-8.993-4.344
			c-7.083-6.248-7.301-17.507-0.489-24.031c7.679-7.355,21.402-7.631,29.049-0.254C64.423,24.365,65.922,27.497,67.666,30.024z
			 M55.291,34.119c0.029-4.419-3.016-7.563-7.384-7.625c-4.514-0.064-7.812,3.199-7.765,7.681c0.046,4.395,3.137,7.391,7.614,7.382
			C52.243,41.548,55.262,38.569,55.291,34.119z M87.093,41.559c4.36-0.061,7.53-3.273,7.484-7.583
			c-0.045-4.273-3.317-7.487-7.621-7.485c-4.46,0.002-7.824,3.433-7.674,7.827C79.431,38.662,82.624,41.622,87.093,41.559z"/>
		<path d="M329.648,18.088c-5.996,11.124-11.675,21.658-17.405,32.289c-2.517,0-4.986,0-7.797,0
			c-5.471-10.11-11.015-20.354-16.558-30.598c-0.202,0.051-0.404,0.103-0.606,0.154c0,10.015,0,20.029,0,30.318
			c-3.855,0-7.404,0-11.219,0c0-10.654,0-21.322,0-32.574c3.143,0,6.207-0.026,9.271,0.007c3.743,0.041,7.497,0.334,11.225,0.133
			c2.771-0.149,4.289,0.688,5.332,3.344c1.819,4.632,4.03,9.11,6.393,14.354c2.841-6.158,5.442-11.798,8.039-17.427
			C320.695,18.088,324.883,18.088,329.648,18.088z"/>
		<path d="M237.783,20.099c0.199-0.929,0.351-1.641,0.525-2.452c3.537,0,7.008,0,10.746,0c0,10.762,0,21.436,0,32.425
			c-3.443,0-6.983,0-10.701,0c-0.145-0.9-0.297-1.849-0.44-2.744c-10.202,6.518-19.001,5.623-25.2-5.373
			c-3.744-6.642-1.892-15.569,3.42-20.766C221.636,15.806,228.816,15.392,237.783,20.099z M238.15,34.079
			c0.013-4.36-3.11-7.536-7.454-7.581c-4.565-0.047-7.717,3.125-7.666,7.715c0.049,4.465,3.051,7.366,7.597,7.343
			C235.056,41.533,238.137,38.471,238.15,34.079z"/>
		<path d="M338.697,35.433c0.983,7.513,7.101,8.806,15.196,3.631c0.384,0.123,0.875,0.219,1.311,0.43
			c2.015,0.973,4.014,1.978,6.225,3.074c-0.405,2.008-1.843,3.205-3.207,4.378c-6.283,5.405-17.416,5.818-24.11,0.947
			c-6.226-4.53-8.744-11.717-6.593-18.819c1.993-6.582,8.81-11.818,15.958-12.255c8.624-0.528,15.517,3.503,17.8,10.675
			c0.769,2.416,0.941,5.023,1.456,7.94C354.42,35.433,346.727,35.433,338.697,35.433z M339.136,29.236c4.161,0,8.037,0,11.991,0
			c-1.321-4.004-2.882-5.17-6.457-5.015C341.368,24.365,340.035,25.533,339.136,29.236z"/>
		<path d="M255.639,26.444c-1.894-0.225-3.115-0.37-4.517-0.536c0-2.693,0-5.258,0-8.081c1.275-0.159,2.582-0.321,4.385-0.546
			c0-3.825,0-7.726,0-11.883c4.027,0,7.559,0,11.443,0c0,3.995,0,7.818,0,11.945c2.397,0.114,4.466,0.213,6.78,0.323
			c0,2.677,0,5.24,0,8.268c-1.955,0.136-4,0.279-6.543,0.456c-0.198,4.217-0.391,8.391,0.184,12.57
			c0.2,1.456,1.202,2.127,2.677,1.976c0.726-0.074,1.445-0.222,2.441-0.38c0.875,2.845,1.737,5.651,2.62,8.521
			c-3.781,2.22-7.527,2.653-11.424,1.839c-4.472-0.934-6.844-4.036-7.502-8.302c-0.491-3.184-0.421-6.458-0.53-9.694
			C255.581,30.83,255.639,28.735,255.639,26.444z"/>
		<path d="M29.029,19.745c-1.176,2.361-2.375,4.769-3.636,7.302c-4.55-1.766-8.737-2.153-11.906,2.156
			c-1.955,2.658-1.865,6.811,0.068,9.481c2.421,3.345,5.54,3.961,11.737,2.185c0.607,1.1,1.281,2.246,1.88,3.43
			c0.612,1.209,1.15,2.456,1.705,3.652C22.612,53.264,11.489,52.191,5,45.747c-6.198-6.155-6.694-15.796-1.151-22.364
			C10.142,15.928,21.125,14.235,29.029,19.745z"/>
		<path d="M184.937,17.867c3.641,0,7.08,0,10.757,0c0.185,1.255,0.354,2.406,0.59,4.011c4.903-5.238,10.226-6.586,16.823-3.078
			c-1.465,3.085-2.879,6.062-4.384,9.231c-1.3-0.41-2.428-0.833-3.589-1.119c-5.213-1.284-8.944,1.46-9.125,6.863
			c-0.142,4.241-0.023,8.491-0.045,12.736c-0.006,1.216-0.102,2.432-0.164,3.803c-0.81,0.085-1.404,0.198-2,0.202
			c-2.856,0.019-5.713,0.008-8.863,0.008C184.937,39.554,184.937,28.809,184.937,17.867z"/>
		<path d="M281.888,0.006c3.594,0.094,6.531,3.175,6.489,6.808c-0.042,3.626-3.06,6.637-6.655,6.64
			c-3.71,0.003-6.899-3.311-6.728-6.992C275.16,2.876,278.323-0.086,281.888,0.006z"/>
		<path d="M94.685,11.507c-3.147,0.086-5.761-2.308-5.926-5.426c-0.178-3.371,2.236-5.991,5.597-6.075
			c3.24-0.081,5.764,2.211,5.922,5.376C100.444,8.704,97.967,11.417,94.685,11.507z"/>
		<path d="M85.171,5.775c-0.027,3.262-2.747,5.85-6.02,5.726c-3.121-0.119-5.586-2.689-5.57-5.811
			c0.017-3.324,2.645-5.806,6.021-5.686C82.772,0.117,85.196,2.629,85.171,5.775z"/>
		<path class="st0" d="M127.184,41.555c-4.293-0.067-7.513-3.345-7.481-7.617c0.033-4.453,3.394-7.581,7.989-7.439
			c4.425,0.137,7.336,3.264,7.209,7.744C134.777,38.594,131.581,41.623,127.184,41.555z"/>
		<path class="st0" d="M159.194,29.199c0.753-3.581,2.105-4.806,5.4-4.974c3.568-0.183,5.144,0.958,6.572,4.974
			C167.114,29.199,163.165,29.199,159.194,29.199z"/>
		<path class="st0" d="M55.291,34.119c-0.029,4.45-3.048,7.429-7.535,7.438c-4.478,0.009-7.568-2.987-7.614-7.382
			c-0.047-4.482,3.251-7.745,7.765-7.681C52.275,26.556,55.32,29.7,55.291,34.119z"/>
		<path class="st0" d="M87.093,41.559c-4.469,0.063-7.662-2.897-7.811-7.24c-0.151-4.394,3.214-7.826,7.674-7.827
			c4.304-0.002,7.576,3.212,7.621,7.485C94.623,38.286,91.453,41.498,87.093,41.559z"/>
		<path class="st0" d="M238.15,34.079c-0.013,4.392-3.094,7.454-7.523,7.477c-4.546,0.024-7.548-2.877-7.597-7.343
			c-0.051-4.591,3.101-7.762,7.666-7.715C235.039,26.543,238.162,29.719,238.15,34.079z"/>
		<path class="st0" d="M339.136,29.236c0.899-3.704,2.232-4.871,5.534-5.015c3.575-0.156,5.136,1.011,6.457,5.015
			C347.174,29.236,343.297,29.236,339.136,29.236z"/>
	</g>
</g>
</svg>
