<?xml version="1.0" encoding="UTF-8"?>
<svg width="33px" height="30px" viewBox="0 0 33 30" version="1.1" xmlns="http://www.w3.org/2000/svg" xmlns:xlink="http://www.w3.org/1999/xlink">
    <!-- Generator: Sketch 57.1 (83088) - https://sketch.com -->
    <title>logo</title>
    <desc>Created with Sketch.</desc>
    <g id="Welcome" stroke="none" stroke-width="1" fill="none" fill-rule="evenodd">
        <g id="랜딩-v.3.0" transform="translate(-240.000000, -18.000000)" fill="#000000" fill-rule="nonzero">
            <g id="Nav" transform="translate(240.000000, 18.000000)">
                <g id="logo">
                    <g transform="translate(0.506685, 0.000000)" id="Path">
                        <path d="M1.72826217,9.80917431 C3.22224044,9.80917431 4.67535848,9.80917431 6.17296257,9.80917431 C6.45298762,16.5320642 6.73217595,23.2365138 7.01289827,29.9781193 C4.98299556,29.9781193 2.98823545,29.9781193 0.905479408,29.9781193 C1.179229,23.2694037 1.45311804,16.5531193 1.72826217,9.80917431 Z"></path>
                        <path d="M19.1806003,29.9878899 C17.1289427,29.9878899 15.1488253,29.9878899 13.0696951,29.9878899 C13.3452576,23.2735321 13.6209595,16.556422 13.8977771,9.81068807 C15.3815752,9.81068807 16.8196321,9.81068807 18.3403857,9.81068807 C18.6197135,16.5170642 18.8987623,23.2202752 19.1806003,29.9878899 Z"></path>
                        <path d="M26.0679893,9.7807458 C27.4965633,9.7807458 28.8537365,9.78027523 30.2110492,9.78206422 C30.294722,9.78220183 30.3783949,9.79926606 30.5110163,9.81385321 C30.7886706,16.533578 31.0656276,23.2395413 31.3442581,29.9805963 C29.2978998,29.9805963 27.2889153,29.9805963 25.2353053,29.9805963 C25.5126807,23.2497248 25.7890799,16.5452752 26.0679893,9.7807458 Z"></path>
                        <path d="M16.0671345,7.81252294 C13.9246919,7.78417431 12.1183351,5.97550459 12.1587769,3.8690367 C12.2003344,1.70188073 13.8514782,-0.0502293578 16.2302965,0.00495412844 C18.4366094,0.056146789 20.0657193,1.67215596 20.0791732,3.92917431 C20.0919368,6.08463303 18.2387232,7.8412844 16.0671345,7.81252294 Z"></path>
                        <path d="M7.90429307,3.8962844 C7.90303766,6.03495413 6.12303779,7.81321101 3.98463932,7.8122481 C1.79296916,7.8112844 0.0287276695,6.05944954 0.000278909413,3.90206422 C-0.0264963942,1.8666055 1.61321204,-0.014587156 3.98115295,0.000137614679 C6.25984286,0.0141743119 7.90512948,1.75582569 7.90429307,3.8962844 Z"></path>
                        <path d="M32.2363499,3.90977064 C32.2306323,6.04981651 30.4541188,7.81293578 28.304285,7.81238545 C26.1230739,7.81183486 24.3096049,6.03412844 24.3302442,3.88940367 C24.3517203,1.66169725 26.0751015,-0.0177522936 28.3218563,0.00110091743 C30.7344227,0.0211926606 32.2809754,1.93155963 32.2363499,3.90977064 Z"></path>
                    </g>
                </g>
            </g>
        </g>
    </g>
</svg>