<svg xmlns="http://www.w3.org/2000/svg" xmlns:xlink="http://www.w3.org/1999/xlink" width="300" height="300" viewBox="0 0 300 300">
    <defs>
        <linearGradient id="b" x1="50%" x2="50%" y1="0%" y2="100%">
            <stop offset="0%" stop-color="#1D0024"/>
            <stop offset="100%" stop-color="#100014"/>
        </linearGradient>
        <circle id="a" cx="150" cy="150" r="150"/>
        <linearGradient id="e" x1="50%" x2="50%" y1="0%" y2="100%">
            <stop offset="0%" stop-color="#806A6A"/>
            <stop offset="100%" stop-color="#665654"/>
        </linearGradient>
        <path id="d" d="M195 48c4.889 9.333 8.556 31 11 65H0c2.444-34 6.111-55.667 11-65 7.333-14 38-30 92-48 54 18 84.667 34 92 48z"/>
        <linearGradient id="h" x1="50%" x2="50%" y1="100%" y2="0%">
            <stop offset="0%" stop-color="#E6864E"/>
            <stop offset="100%" stop-color="#E67240"/>
        </linearGradient>
        <path id="g" d="M60.18 24.705c4-17.5-14.968-30.93-34.5-21.71C-20.32 24.705 7.042 55 24.042 53S56.18 42.205 60.18 24.705z"/>
        <linearGradient id="j" x1="50%" x2="50%" y1="100%" y2="0%">
            <stop offset="0%" stop-color="#E6864E"/>
            <stop offset="100%" stop-color="#E67240"/>
        </linearGradient>
        <linearGradient id="k" x1="50%" x2="50%" y1="0%" y2="100%">
            <stop offset="0%" stop-color="#FFD4B3"/>
            <stop offset="100%" stop-color="#FFDCC2"/>
        </linearGradient>
        <linearGradient id="l" x1="50%" x2="50%" y1="100%" y2="0%">
            <stop offset="0%" stop-color="#E6864E"/>
            <stop offset="100%" stop-color="#E57442"/>
        </linearGradient>
    </defs>
    <g fill="none" fill-rule="evenodd">
        <mask id="c" fill="#fff">
            <use xlink:href="#a"/>
        </mask>
        <use fill="url(#b)" fill-rule="nonzero" xlink:href="#a"/>
        <g mask="url(#c)">
            <g transform="translate(47 195)">
                <mask id="f" fill="#fff">
                    <use xlink:href="#d"/>
                </mask>
                <use fill="url(#e)" fill-rule="nonzero" xlink:href="#d"/>
                <path fill="#13001E" fill-rule="nonzero" d="M3 98a6 6 0 1 1 0 12 6 6 0 0 1 0-12zm40 0a6 6 0 1 1 0 12 6 6 0 0 1 0-12zm40 0a6 6 0 1 1 0 12 6 6 0 0 1 0-12zm40 0a6 6 0 1 1 0 12 6 6 0 0 1 0-12zm40 0a6 6 0 1 1 0 12 6 6 0 0 1 0-12zm40 0a6 6 0 1 1 0 12 6 6 0 0 1 0-12zM23 78a6 6 0 1 1 0 12 6 6 0 0 1 0-12zm40 0a6 6 0 1 1 0 12 6 6 0 0 1 0-12zm40 0a6 6 0 1 1 0 12 6 6 0 0 1 0-12zm40 0a6 6 0 1 1 0 12 6 6 0 0 1 0-12zm40 0a6 6 0 1 1 0 12 6 6 0 0 1 0-12zM3 58a6 6 0 1 1 0 12 6 6 0 0 1 0-12zm40 0a6 6 0 1 1 0 12 6 6 0 0 1 0-12zm40 0a6 6 0 1 1 0 12 6 6 0 0 1 0-12zm40 0a6 6 0 1 1 0 12 6 6 0 0 1 0-12zm40 0a6 6 0 1 1 0 12 6 6 0 0 1 0-12zm40 0a6 6 0 1 1 0 12 6 6 0 0 1 0-12zM23 38a6 6 0 1 1 0 12 6 6 0 0 1 0-12zm40 0a6 6 0 1 1 0 12 6 6 0 0 1 0-12zm40 0a6 6 0 1 1 0 12 6 6 0 0 1 0-12zm40 0a6 6 0 1 1 0 12 6 6 0 0 1 0-12zm40 0a6 6 0 1 1 0 12 6 6 0 0 1 0-12zM3 18a6 6 0 1 1 0 12 6 6 0 0 1 0-12zm40 0a6 6 0 1 1 0 12 6 6 0 0 1 0-12zm120 0a6 6 0 1 1 0 12 6 6 0 0 1 0-12zm40 0a6 6 0 1 1 0 12 6 6 0 0 1 0-12z" mask="url(#f)" opacity=".4"/>
            </g>
        </g>
        <g mask="url(#c)">
            <g transform="translate(160 28)">
                <mask id="i" fill="#fff">
                    <use xlink:href="#g"/>
                </mask>
                <use fill="url(#h)" transform="matrix(-1 0 0 1 61.043 0)" xlink:href="#g"/>
                <path fill="#E0713F" d="M17.5 27.5c22.667 14.667 36.833 18 42.5 10 .877 5.01-3.156 19.165-9.5 19-12.651-.33-23.651-9.996-33-29z" mask="url(#i)" opacity=".6" style="mix-blend-mode:multiply"/>
            </g>
        </g>
        <path fill="url(#j)" d="M172 163c-21.483 10.32-24.617 9.768-72-29-71.5-58.5-4-112 68.5-83.5C247 85 220.7 139.605 172 163z" mask="url(#c)"/>
        <path fill="url(#k)" d="M174 204c-7.333 12-40.667 12-48 0v-20c-2.175.064-4.008.064-5.5 0-23.39-1.002-31.205-38.627-27.535-76.262C95.653 80.176 119 118 157 91.5c-1.5 29 11 26 16.5 22.5 25-11.5 25.209 35.642.5 32v58z" mask="url(#c)"/>
        <path fill="#FFBB94" fill-rule="nonzero" d="M125.904 183.411c9.018-.352 20.398-4.991 34.14-13.917-6.898 13.5-18.383 21.138-34.454 22.912l.314-8.995z" mask="url(#c)" transform="rotate(-2 142.817 180.95)"/>
        <path fill="#FFF9F5" fill-rule="nonzero" d="M174 201.46V195c1.834 0 7.085 4.332 9.786 8 10.676 14.5-1.166 27.5-10.824 27.5-12.186 0-20.26-10.182-22.962-15.08-2.702 4.898-10.776 15.08-22.962 15.08-9.658 0-21.5-13-10.824-27.5 2.7-3.668 7.952-8 9.786-8v6.46c0 7.648 16.74 11.188 23.967 11.515 6.841-.327 24.033-3.867 24.033-11.515z" mask="url(#c)"/>
        <path fill="url(#l)" d="M177.394 71.428c16 40 7 59.5-5.5 83-8.333 15.666-7.333 30.833 3 45.5-12-7.667-18-20-18-37 0-25.5 18-41.5 3-62.5s1.5-69 17.5-29z" mask="url(#c)" transform="matrix(-1 0 0 1 339.984 0)"/>
    </g>
</svg>
