<svg width="24" height="24" viewBox="0 0 24 24" fill="none" xmlns="http://www.w3.org/2000/svg">
<g id="24 / time / alarm-minus">
<path id="icon" fill-rule="evenodd" clip-rule="evenodd" d="M4.79285 1.29285L6.20706 2.70706L2.70706 6.20706L1.29285 4.79285L4.79285 1.29285ZM22.7071 4.79285L19.2071 1.29285L17.7928 2.70706L21.2928 6.20706L22.7071 4.79285ZM12 22C6.47711 22 1.99995 17.5228 1.99995 12C1.99995 6.47711 6.47711 1.99995 12 1.99995C17.5228 1.99995 22 6.47711 22 12C22 17.5228 17.5228 22 12 22ZM12 20C16.4182 20 20 16.4182 20 12C20 7.58168 16.4182 3.99995 12 3.99995C7.58168 3.99995 3.99995 7.58168 3.99995 12C3.99995 16.4182 7.58168 20 12 20ZM7.99995 11V13H16V11H7.99995Z" fill="black"/>
</g>
</svg>
