<svg width="24" height="24" viewBox="0 0 24 24" fill="none" xmlns="http://www.w3.org/2000/svg">
<g id="24 / time / alarm-plus">
<path id="icon" fill-rule="evenodd" clip-rule="evenodd" d="M6.20706 2.70706L4.79285 1.29285L1.29285 4.79285L2.70706 6.20706L6.20706 2.70706ZM19.2071 1.29285L22.7071 4.79285L21.2928 6.20706L17.7928 2.70706L19.2071 1.29285ZM1.99995 12C1.99995 17.5228 6.47711 22 12 22C17.5228 22 22 17.5228 22 12C22 6.47711 17.5228 1.99995 12 1.99995C6.47711 1.99995 1.99995 6.47711 1.99995 12ZM20 12C20 16.4182 16.4182 20 12 20C7.58168 20 3.99995 16.4182 3.99995 12C3.99995 7.58168 7.58168 3.99995 12 3.99995C16.4182 3.99995 20 7.58168 20 12ZM11 13H7.99995V11H11V7.99995H13V11H16V13H13V16H11V13Z" fill="black"/>
</g>
</svg>
