<svg width="24" height="24" viewBox="0 0 24 24" fill="none" xmlns="http://www.w3.org/2000/svg">
<g id="24 / time / alarm-no">
<path id="icon" fill-rule="evenodd" clip-rule="evenodd" d="M2.33574 3.74995L1.29285 4.79285L2.70706 6.20706L3.74995 5.16417L4.25701 5.67122C2.84632 7.39509 1.99995 9.59868 1.99995 12C1.99995 17.5228 6.47711 22 12 22C14.4012 22 16.6048 21.1536 18.3287 19.7429L21.2928 22.7071L22.7071 21.2928L2.70706 1.29285L1.29285 2.70706L2.33574 3.74995ZM16.9056 18.3198L5.6801 7.09431C4.62704 8.44899 3.99995 10.1512 3.99995 12C3.99995 16.4182 7.58168 20 12 20C13.8487 20 15.5509 19.3729 16.9056 18.3198ZM20 12C20 13.1162 19.7713 14.179 19.3584 15.1442L20.8584 16.6442C21.5874 15.2564 22 13.6764 22 12C22 6.47711 17.5228 1.99995 12 1.99995C10.3235 1.99995 8.74348 2.41247 7.35573 3.14152L8.85572 4.64151C9.8209 4.22856 10.8837 3.99995 12 3.99995C16.4182 3.99995 20 7.58168 20 12ZM19.2071 1.29285L22.7071 4.79285L21.2928 6.20706L17.7928 2.70706L19.2071 1.29285Z" fill="black"/>
</g>
</svg>
