<svg width="24" height="24" viewBox="0 0 24 24" fill="none" xmlns="http://www.w3.org/2000/svg">
<g id="24 / basic / browser-no">
<path id="icon" fill-rule="evenodd" clip-rule="evenodd" d="M12 15.4142L9.70711 17.7071L8.29289 16.2929L10.5858 14L8.29289 11.7071L9.70711 10.2929L12 12.5858L14.2929 10.2929L15.7071 11.7071L13.4142 14L15.7071 16.2929L14.2929 17.7071L12 15.4142ZM21 9H3V19H21V9ZM21 7V5H3V7H21ZM3 21C1.89543 21 1 20.1046 1 19V5C1 3.89543 1.89543 3 3 3H21C22.1046 3 23 3.89543 23 5V19C23 20.1046 22.1046 21 21 21H3Z" fill="black"/>
</g>
</svg>
