<svg width="24" height="24" viewBox="0 0 24 24" fill="none" xmlns="http://www.w3.org/2000/svg">
<g id="24 / basic / brush">
<path id="icon" fill-rule="evenodd" clip-rule="evenodd" d="M20 1V9H20L20 10L20 11L20 12.9942C20.0087 14.5165 19.1594 14.9983 16.7914 15.7079C15.4034 16.1238 15 16.3523 15 16.5C15 17.2676 15.0703 17.783 15.2201 18.3825C15.1912 18.2665 15.362 18.927 15.3997 19.103C15.466 19.4125 15.5 19.6942 15.5 20C15.5 21.6609 13.9377 23 12 23C10.0623 23 8.5 21.6609 8.5 20C8.5 19.6942 8.534 19.4125 8.60032 19.103C8.63803 18.927 8.80884 18.2665 8.77986 18.3825C8.92971 17.783 9 17.2676 9 16.5C9 16.3513 8.59771 16.1233 7.21265 15.7078C4.84771 14.9983 4 14.518 4 13V11V9V1H20ZM12.9264 11H18L18 13C18.0008 13.1505 17.6005 13.3776 16.2173 13.7921L16.213 13.7934C13.8493 14.5017 13 14.9827 13 16.5C13 17.4407 13.0922 18.117 13.2799 18.8675C13.262 18.796 13.4167 19.3942 13.4441 19.522C13.4826 19.7018 13.5 19.846 13.5 20C13.5 20.482 12.8957 21 12 21C11.1043 21 10.5 20.482 10.5 20C10.5 19.846 10.5174 19.7018 10.5559 19.522C10.5833 19.3942 10.738 18.796 10.7201 18.8675C10.9078 18.117 11 17.4407 11 16.5C11 14.982 10.1523 14.5017 7.78735 13.7922C6.40229 13.3767 6 13.1487 6 13V11H12.9264ZM6 9V3H8V7H10V3H12V6H14V3H18V9H6Z" fill="black"/>
</g>
</svg>
