<svg width="24" height="24" viewBox="0 0 24 24" fill="none" xmlns="http://www.w3.org/2000/svg">
<g id="24 / basic / calculator">
<path id="icon" fill-rule="evenodd" clip-rule="evenodd" d="M18 1H6C4.89543 1 4 1.89543 4 3V21C4 22.1046 4.89543 23 6 23H18C19.1046 23 20 22.1046 20 21V3C20 1.89543 19.1046 1 18 1ZM6 7V3H18V7H6ZM6 9V21H18V9H6ZM10 19H8V17H10V19ZM11 19H13V17H11V19ZM16 19H14V16V15V14H16V15V16V19ZM8 16H10V14H8V16ZM13 16H11V14H13V16ZM10 13H8V11H10V13ZM11 13H13V11H11V13ZM16 13H14V11H16V13Z" fill="black"/>
</g>
</svg>
