<svg width="24" height="24" viewBox="0 0 24 24" fill="none" xmlns="http://www.w3.org/2000/svg">
<g id="24 / basic / camera-no">
<path id="icon" fill-rule="evenodd" clip-rule="evenodd" d="M2.70711 1.29291L1.29289 2.70712L4.58579 6.00001H4C2.34315 6.00001 1 7.34316 1 9.00001V18C1 19.6569 2.34315 21 4 21H19.5858L21.2929 22.7071L22.7071 21.2929L2.70711 1.29291ZM17.5858 19L15.3226 16.7368C14.4216 17.5387 13.2484 18 12 18C9.23858 18 7 15.7614 7 13C7 11.7509 7.46197 10.5777 8.2632 9.67743L6.58579 8.00001H4C3.44772 8.00001 3 8.44773 3 9.00001V18C3 18.5523 3.44772 19 4 19H17.5858ZM9.6814 11.0956C9.24743 11.6231 9 12.2904 9 13C9 14.6569 10.3431 16 12 16C12.7093 16 13.3766 15.7529 13.9044 15.3186L9.6814 11.0956ZM20 6.00001C21.6569 6.00001 23 7.34316 23 9.00001V18H21V9.00001C21 8.44773 20.5523 8.00001 20 8.00001H17C16.3357 8.00001 15.8876 7.63642 15.4394 7.01327C15.3363 6.86989 15.2341 6.71333 15.1111 6.5141C15.069 6.44588 14.9597 6.26555 14.8847 6.14171L14.8846 6.14156L14.8118 6.0216C14.3595 5.28174 14.0867 5.00001 14 5.00001H10C10.0301 5.00001 10.02 5.00938 9.95302 5.07175C9.93406 5.08941 9.91053 5.11131 9.88207 5.13846C9.81348 5.20385 9.51009 5.51491 9.52688 5.49799C9.52013 5.50478 8.09622 4.10031 8.09622 4.10031C8.06517 4.13162 8.40245 3.78582 8.50189 3.69101C8.96794 3.24662 9.40746 3.00001 10 3.00001H14C15.0866 3.00001 15.6892 3.6224 16.5182 4.97843L16.6021 5.11668L16.6023 5.11709L16.6035 5.11898C16.6778 5.24152 16.7767 5.40472 16.8131 5.46374C16.9134 5.62632 16.9921 5.7469 17.063 5.84539C17.1097 5.91034 17.1505 5.96195 17.1838 6.00001H20ZM19 11C19.5523 11 20 10.5523 20 10C20 9.44773 19.5523 9.00001 19 9.00001C18.4477 9.00001 18 9.44773 18 10C18 10.5523 18.4477 11 19 11Z" fill="black"/>
</g>
</svg>
