<svg width="24" height="24" viewBox="0 0 24 24" fill="none" xmlns="http://www.w3.org/2000/svg">
<g id="24 / basic / circle-block">
<path id="icon" fill-rule="evenodd" clip-rule="evenodd" d="M12 23C5.92487 23 1 18.0751 1 12C1 5.92487 5.92487 1 12 1C18.0751 1 23 5.92487 23 12C23 18.0751 18.0751 23 12 23ZM19.0319 17.6177C20.2635 16.078 21 14.125 21 12C21 7.02944 16.9706 3 12 3C9.87499 3 7.92199 3.73647 6.38231 4.9681L19.0319 17.6177ZM17.6177 19.0319C16.078 20.2635 14.125 21 12 21C7.02944 21 3 16.9706 3 12C3 9.87499 3.73647 7.92199 4.9681 6.38231L17.6177 19.0319Z" fill="black"/>
</g>
</svg>
