<svg width="24" height="24" viewBox="0 0 24 24" fill="none" xmlns="http://www.w3.org/2000/svg">
<g id="24 / basic / dashboard">
<path id="icon" fill-rule="evenodd" clip-rule="evenodd" d="M5.39835 21.7995C2.65046 19.735 1 16.5037 1 13C1 6.92487 5.92487 2 12 2C18.0751 2 23 6.92487 23 13C23 16.5037 21.3495 19.735 18.6017 21.7995L18.3348 22H5.66522L5.39835 21.7995ZM17.6575 20C19.753 18.305 21 15.757 21 13C21 8.02944 16.9706 4 12 4C7.02944 4 3 8.02944 3 13C3 15.757 4.24698 18.305 6.34253 20H17.6575ZM17.3192 7.57346L15.6808 6.42654L13.0477 10.188C12.7216 10.0665 12.3685 10 12 10C10.3431 10 9 11.3431 9 13C9 14.6569 10.3431 16 12 16C13.6569 16 15 14.6569 15 13C15 12.4445 14.849 11.9243 14.5859 11.4782L17.3192 7.57346ZM13 13C13 13.5523 12.5523 14 12 14C11.4477 14 11 13.5523 11 13C11 12.4477 11.4477 12 12 12C12.5523 12 13 12.4477 13 13Z" fill="black"/>
</g>
</svg>
