<svg width="24" height="24" viewBox="0 0 24 24" fill="none" xmlns="http://www.w3.org/2000/svg">
<g id="24 / basic / globe">
<path id="icon" fill-rule="evenodd" clip-rule="evenodd" d="M12 1C18.0751 1 23 5.92487 23 12C23 18.0751 18.0751 23 12 23C5.92487 23 1 18.0751 1 12C1 5.92487 5.92487 1 12 1ZM3.06565 10.9074C3.35719 11.2805 4.16782 11.758 5.40826 12.1475C5.89668 12.3009 6.4316 12.4357 7.00555 12.5502C7.00186 12.3679 7 12.1844 7 12C7 8.67236 7.60556 5.6673 8.65455 3.64231C5.66412 4.84042 3.46628 7.59699 3.06565 10.9074ZM7.12914 14.6108C5.52334 14.3317 4.14644 13.9093 3.10296 13.3658C3.58837 16.5542 5.74677 19.1927 8.65455 20.3577C7.88867 18.8792 7.35916 16.8783 7.12914 14.6108ZM9.17891 14.8773C10.076 14.9581 11.0209 15 12 15C12.9633 15 13.9124 14.9454 14.8253 14.8441C14.3742 18.4417 13.127 21 12 21C10.8765 21 9.63347 18.4574 9.17891 14.8773ZM14.9863 12.8045C14.0367 12.9275 13.028 13 12 13C10.9558 13 9.95341 12.9483 9.01531 12.8502C9.00522 12.5706 9 12.287 9 12C9 6.98399 10.5936 3 12 3C13.4064 3 15 6.98399 15 12C15 12.2713 14.9953 12.5397 14.9863 12.8045ZM16.8792 14.5269C16.6539 16.8289 16.1208 18.861 15.3454 20.3577C18.3046 19.1721 20.4876 16.4606 20.9212 13.1964C19.861 13.7479 18.4647 14.209 16.8792 14.5269ZM20.9285 10.8601C20.458 11.3883 18.9737 12.0157 16.9962 12.4541C16.9987 12.3035 17 12.1521 17 12C17 8.67236 16.3944 5.6673 15.3454 3.64231C18.3216 4.83471 20.5128 7.57077 20.9285 10.8601Z" fill="black"/>
</g>
</svg>
