<svg width="24" height="24" viewBox="0 0 24 24" fill="none" xmlns="http://www.w3.org/2000/svg">
<g id="24 / basic / globe-no">
<path id="icon" fill-rule="evenodd" clip-rule="evenodd" d="M3.54673 4.96094L1.29289 2.70711L2.70711 1.29289L22.7071 21.2929L21.2929 22.7071L19.0391 20.4533C17.1316 22.0434 14.6775 23 12 23C5.92487 23 1 18.0751 1 12C1 9.3225 1.95662 6.86844 3.54673 4.96094ZM17.6177 19.0319L16.321 17.7352C16.0622 18.7217 15.7343 19.607 15.3454 20.3577C16.1702 20.0273 16.9346 19.5783 17.6177 19.0319ZM13.5396 14.9538L14.6376 16.0518C14.0865 19.0008 12.9963 21 12 21C10.8765 21 9.63347 18.4574 9.17891 14.8773C10.076 14.9581 11.0209 15 12 15C12.5185 15 13.0328 14.9842 13.5396 14.9538ZM11.583 12.9972L9.05019 10.4644C9.01741 10.9628 9 11.4757 9 12C9 12.287 9.00522 12.5706 9.01531 12.8502C9.82785 12.9352 10.6886 12.9853 11.583 12.9972ZM7.2183 8.63252C7.07513 9.69584 7 10.8279 7 12C7 12.1844 7.00186 12.3679 7.00555 12.5502C6.4316 12.4357 5.89668 12.3009 5.40826 12.1475C4.16782 11.758 3.35719 11.2805 3.06565 10.9074C3.27135 9.20771 3.95082 7.65402 4.9681 6.38231L7.2183 8.63252ZM8.65455 3.64231C8.47754 3.98401 8.31316 4.35362 8.16218 4.74797L9.74426 6.33005C10.3377 4.29167 11.1992 3 12 3C13.3671 3 14.9111 6.76451 14.9963 11.5821L17.748 14.3338C18.9753 14.0333 20.0593 13.6447 20.9212 13.1964C20.767 14.357 20.3917 15.4477 19.839 16.4248L21.2967 17.8824C22.3754 16.1812 23 14.1635 23 12C23 5.92487 18.0751 1 12 1C9.83647 1 7.81883 1.62461 6.11756 2.70334L7.57522 4.16101C7.92139 3.96519 8.28181 3.79164 8.65455 3.64231ZM7.12914 14.6108C5.52334 14.3317 4.14644 13.9093 3.10296 13.3658C3.58837 16.5542 5.74677 19.1927 8.65455 20.3577C7.88867 18.8792 7.35916 16.8783 7.12914 14.6108ZM20.9285 10.8601C20.458 11.3883 18.9737 12.0157 16.9962 12.4541C16.9987 12.3035 17 12.1521 17 12C17 8.67236 16.3944 5.6673 15.3454 3.64231C18.3216 4.83471 20.5128 7.57077 20.9285 10.8601Z" fill="black"/>
</g>
</svg>
