<svg width="24" height="24" viewBox="0 0 24 24" fill="none" xmlns="http://www.w3.org/2000/svg">
<path d="M21.8055 10.0416H21V10.0001H12V14.0001H17.6515C16.827 16.3286 14.6115 18.0001 12 18.0001C8.6865 18.0001 6 15.3136 6 12.0001C6 8.68656 8.6865 6.00006 12 6.00006C13.5295 6.00006 14.921 6.57706 15.9805 7.51956L18.809 4.69106C17.023 3.02656 14.634 2.00006 12 2.00006C6.4775 2.00006 2 6.47756 2 12.0001C2 17.5226 6.4775 22.0001 12 22.0001C17.5225 22.0001 22 17.5226 22 12.0001C22 11.3296 21.931 10.6751 21.8055 10.0416Z" fill="#FFC107"/>
<path d="M3.15298 7.34556L6.43848 9.75506C7.32748 7.55406 9.48049 6.00006 12 6.00006C13.5295 6.00006 14.921 6.57706 15.9805 7.51956L18.809 4.69106C17.023 3.02656 14.634 2.00006 12 2.00006C8.15899 2.00006 4.82798 4.16856 3.15298 7.34556Z" fill="#FF3D00"/>
<path d="M12 22C14.583 22 16.93 21.0115 18.7045 19.404L15.6095 16.785C14.6055 17.5455 13.3575 18 12 18C9.399 18 7.1905 16.3415 6.3585 14.027L3.0975 16.5395C4.7525 19.778 8.1135 22 12 22Z" fill="#4CAF50"/>
<path d="M21.8055 10.0414H21V9.99994H12V13.9999H17.6515C17.2555 15.1184 16.536 16.0829 15.608 16.7854C15.6085 16.7849 15.609 16.7849 15.6095 16.7844L18.7045 19.4034C18.4855 19.6024 22 16.9999 22 11.9999C22 11.3294 21.931 10.6749 21.8055 10.0414Z" fill="#1976D2"/>
</svg>
