<svg width="24" height="24" viewBox="0 0 24 24" fill="none" xmlns="http://www.w3.org/2000/svg">
<g id="24 / basic / heart-no">
<path id="icon" fill-rule="evenodd" clip-rule="evenodd" d="M2.41424 1.29291L1.00002 2.70712L2.43898 4.14608C1.31029 5.41482 0.643311 7.15582 0.643311 9.11989C0.643311 12.1671 2.39891 15.1039 5.66633 17.9414C7.37952 19.4292 9.56677 20.9014 11.1318 21.6839L12 22.118L12.8683 21.6839C14.0986 21.0688 15.7134 20.0274 17.1802 18.8873L21 22.7071L22.4142 21.2929L2.41424 1.29291ZM15.7541 17.4612L3.85665 5.56375C3.09255 6.46446 2.64331 7.69909 2.64331 9.11989C2.64331 11.4905 4.10622 13.9377 6.9777 16.4314C8.55591 17.8019 10.588 19.1716 12 19.8819C13.0546 19.3514 14.4552 18.453 15.7541 17.4612ZM21.3567 9.11989C21.3567 10.9687 20.4669 12.8641 18.7131 14.7918L20.1288 16.2074C22.2395 13.9114 23.3567 11.5508 23.3567 9.11989C23.3567 5.13305 20.523 2.01526 16.7154 2.00003C15.2257 2.00001 14.2691 2.17073 13.17 2.69015C12.7493 2.88898 12.3552 3.12994 11.99 3.41238C11.6382 3.14536 11.2592 2.91508 10.8552 2.72212C9.73453 2.18695 8.72841 2.00001 7.29243 2.00001C6.85962 2.00001 6.43994 2.03924 6.03593 2.1146L7.93832 4.01699C8.74233 4.06367 9.33395 4.21201 9.99328 4.52688C10.4793 4.75897 10.9081 5.06495 11.2785 5.44645L12.0021 6.1918L12.7194 5.44032C13.098 5.04359 13.5332 4.73062 14.0246 4.49838C14.8247 4.12025 15.4985 4.00001 16.7114 4.00002C19.3707 4.01066 21.3567 6.19579 21.3567 9.11989Z" fill="black"/>
</g>
</svg>
