<svg width="24" height="24" viewBox="0 0 24 24" fill="none" xmlns="http://www.w3.org/2000/svg">
<path fill-rule="evenodd" clip-rule="evenodd" d="M1 12C1 18.0751 5.92487 23 12 23C18.0751 23 23 18.0751 23 12C23 5.92487 18.0751 1 12 1C5.92487 1 1 5.92487 1 12ZM21 12C21 16.9706 16.9706 21 12 21C7.02944 21 3 16.9706 3 12C3 7.02944 7.02944 3 12 3C16.9706 3 21 7.02944 21 12ZM12.0321 19C8.67459 19 6.80643 17.2316 6.80643 14V13H17.1158L17.1434 13.9715C17.2358 17.2145 15.4003 19 12.0321 19ZM15.0875 15C14.8526 16.3955 13.9089 17 12.0321 17C10.1563 17 9.18179 16.3902 8.89677 15H15.0875ZM14 8H17V10H14V8ZM10 8H7V10H10V8Z" fill="black"/>
</svg>
