<svg width="24" height="24" viewBox="0 0 24 24" fill="none" xmlns="http://www.w3.org/2000/svg">
<g id="24 / basic / list">
<path id="icon" fill-rule="evenodd" clip-rule="evenodd" d="M2 6C2 7.10457 2.89543 8 4 8C5.10457 8 6 7.10457 6 6C6 4.89543 5.10457 4 4 4C2.89543 4 2 4.89543 2 6ZM8 5H22V7H8V5ZM22 11H8V13H22V11ZM8 19H22V17H8V19ZM2 18C2 19.1046 2.89543 20 4 20C5.10457 20 6 19.1046 6 18C6 16.8954 5.10457 16 4 16C2.89543 16 2 16.8954 2 18ZM4 14C2.89543 14 2 13.1046 2 12C2 10.8954 2.89543 10 4 10C5.10457 10 6 10.8954 6 12C6 13.1046 5.10457 14 4 14Z" fill="black"/>
</g>
</svg>
