<svg width="24" height="24" viewBox="0 0 24 24" fill="none" xmlns="http://www.w3.org/2000/svg">
<g id="24 / basic / mic-no">
<path id="icon" fill-rule="evenodd" clip-rule="evenodd" d="M7.99995 9.41421L1.29285 2.70711L2.70706 1.29289L22.7071 21.2929L21.2928 22.7071L16.9056 18.3199C15.7991 19.18 14.4607 19.756 13 19.9381V21H16V23H7.99995V21H11V19.9381C7.05364 19.446 3.99995 16.0796 3.99995 12V10H5.99995V12C5.99995 15.3137 8.68624 18 12 18C13.2958 18 14.4957 17.5892 15.4765 16.8907L14.0319 15.4462C13.4364 15.7981 12.7418 16 12 16C9.79081 16 7.99995 14.2091 7.99995 12V9.41421ZM12.518 13.9323C12.3528 13.9764 12.1791 14 12 14C10.8954 14 9.99995 13.1046 9.99995 12V11.4142L12.518 13.9323ZM14 5V9.78579L16 11.7858V5C16 2.79086 14.2091 1 12 1C10.1613 1 8.61234 2.24059 8.14456 3.93039L9.99995 5.78579V5C9.99995 3.89543 10.8954 3 12 3C13.1045 3 14 3.89543 14 5ZM19.3584 15.1442L17.7907 13.5765C17.9271 13.0741 18 12.5456 18 12V10H20V12C20 13.1162 19.7713 14.1791 19.3584 15.1442Z" fill="black"/>
</g>
</svg>
