<svg width="24" height="24" viewBox="0 0 24 24" fill="none" xmlns="http://www.w3.org/2000/svg">
<g id="24 / basic / paperclip-no">
<path id="Shape" fill-rule="evenodd" clip-rule="evenodd" d="M12.8698 20.1377L15.7739 17.1882L21.2928 22.7071L22.7071 21.2929L2.70706 1.29289L1.29285 2.70711L6.71787 8.13213L3.8582 11.0351C1.38111 13.562 1.38111 17.6127 3.8565 20.1378C6.31025 22.6408 10.4559 22.6007 12.8698 20.1377ZM8.4499 14.3627L10.6819 12.0962L11.8149 13.2291L9.55095 15.5289C9.25332 15.8363 8.75075 15.8377 8.4499 15.5306C8.13287 15.207 8.13287 14.6863 8.4499 14.3627ZM13.2291 14.6434L10.982 16.9261C9.90736 18.036 8.10951 18.041 7.0213 16.9303C5.9424 15.8291 5.9424 14.0642 7.0231 12.9612L9.26768 10.6819L8.13212 9.54638L5.28471 12.4369C3.5717 14.1843 3.5717 16.9903 5.28471 18.7377C6.94811 20.4345 9.8056 20.4069 11.443 18.7361L14.3597 15.7739L13.2291 14.6434ZM12.0603 7.84617L13.4746 9.26042L14.7681 7.94694L13.3431 6.5436L12.0603 7.84617ZM14.607 10.3928L16.5024 8.46733C17.5172 7.4317 17.5172 5.76849 16.5024 4.73286C15.5341 3.74476 13.8209 3.76674 12.872 4.73474L10.9252 6.71102L9.51094 5.29677L11.4455 3.33293C13.1689 1.57486 16.1702 1.53636 17.9309 3.33307C19.7077 5.14634 19.7077 8.05385 17.9292 9.86875L16.0212 11.807L14.607 10.3928ZM20.292 9.7489L17.1521 12.9379L18.5663 14.3522L21.7172 11.1521L20.292 9.7489Z" fill="black"/>
</g>
</svg>
