<svg width="24" height="24" viewBox="0 0 24 24" fill="none" xmlns="http://www.w3.org/2000/svg">
<g id="24 / basic / screenshot">
<path id="icon" fill-rule="evenodd" clip-rule="evenodd" d="M3 21C1.89543 21 1 20.1046 1 19V5C1 3.89543 1.89543 3 3 3H21C22.1046 3 23 3.89543 23 5V19C23 20.1046 22.1046 21 21 21H3ZM21 5H3V19H21V5ZM11 7C10.2805 7 9.67334 7.30584 9.18432 7.78768C9.11201 7.85893 9.04589 7.93006 8.9857 8H8.4C7.05851 8 6 9.13412 6 10.5V14.5C6 15.8659 7.05851 17 8.4 17H15.6C16.9415 17 18 15.8659 18 14.5V10.5C18 9.13412 16.9415 8 15.6 8H15.0143C14.9541 7.93006 14.888 7.85893 14.8157 7.78768C14.3267 7.30584 13.7195 7 13 7H11ZM11 9C10.8706 9 10.7333 9.06916 10.588 9.21232C10.4804 9.31836 10.406 9.42598 10.3836 9.46816L10.1019 10H8.4C8.19509 10 8 10.209 8 10.5V14.5C8 14.791 8.19509 15 8.4 15H15.6C15.8049 15 16 14.791 16 14.5V10.5C16 10.209 15.8049 10 15.6 10H13.8981L13.6164 9.46816C13.594 9.42598 13.5196 9.31836 13.412 9.21232C13.2667 9.06916 13.1294 9 13 9H11ZM10 12C10 13.1046 10.8954 14 12 14C13.1046 14 14 13.1046 14 12C14 10.8954 13.1046 10 12 10C10.8954 10 10 10.8954 10 12Z" fill="black"/>
</g>
</svg>
