<svg width="24" height="24" viewBox="0 0 24 24" fill="none" xmlns="http://www.w3.org/2000/svg">
<g id="24 / basic / share">
<path id="icon" fill-rule="evenodd" clip-rule="evenodd" d="M14 6C14 6.28742 14.0303 6.56777 14.0879 6.83801L9.01694 9.3735C8.28363 8.53189 7.20393 8 6 8C3.79086 8 2 9.79086 2 12C2 14.2091 3.79086 16 6 16C7.20393 16 8.28363 15.4681 9.01694 14.6265L14.0879 17.162C14.0303 17.4322 14 17.7126 14 18C14 20.2091 15.7909 22 18 22C20.2091 22 22 20.2091 22 18C22 15.7909 20.2091 14 18 14C16.7961 14 15.7164 14.5319 14.9831 15.3735L9.91208 12.838C9.96968 12.5678 10 12.2874 10 12C10 11.7126 9.96968 11.4322 9.91208 11.162L14.9831 8.6265C15.7164 9.46811 16.7961 10 18 10C20.2091 10 22 8.20914 22 6C22 3.79086 20.2091 2 18 2C15.7909 2 14 3.79086 14 6ZM8 12C8 13.1046 7.10457 14 6 14C4.89543 14 4 13.1046 4 12C4 10.8954 4.89543 10 6 10C7.10457 10 8 10.8954 8 12ZM18 8C19.1046 8 20 7.10457 20 6C20 4.89543 19.1046 4 18 4C16.8954 4 16 4.89543 16 6C16 7.10457 16.8954 8 18 8ZM20 18C20 19.1046 19.1046 20 18 20C16.8954 20 16 19.1046 16 18C16 16.8954 16.8954 16 18 16C19.1046 16 20 16.8954 20 18Z" fill="black"/>
</g>
</svg>
