<svg width="24" height="24" viewBox="0 0 24 24" fill="none" xmlns="http://www.w3.org/2000/svg">
<path fill-rule="evenodd" clip-rule="evenodd" d="M1 12C1 18.0751 5.92487 23 12 23C18.0751 23 23 18.0751 23 12C23 5.92487 18.0751 1 12 1C5.92487 1 1 5.92487 1 12ZM21 12C21 16.9706 16.9706 21 12 21C7.02944 21 3 16.9706 3 12C3 7.02944 7.02944 3 12 3C16.9706 3 21 7.02944 21 12ZM12 10C14.2091 10 16 11.7909 16 14V15C16 17.2091 14.2091 19 12 19C9.79086 19 8 17.2091 8 15V14C8 11.7909 9.79086 10 12 10ZM10 14C10 12.8954 10.8954 12 12 12C13.1046 12 14 12.8954 14 14V15C14 16.1046 13.1046 17 12 17C10.8954 17 10 16.1046 10 15V14ZM15 7H17V9H15V7ZM9 7H7V9H9V7Z" fill="black"/>
</svg>
