<svg width="24" height="24" viewBox="0 0 24 24" fill="none" xmlns="http://www.w3.org/2000/svg">
<g id="24 / time / stopwatch">
<path id="icon" fill-rule="evenodd" clip-rule="evenodd" d="M11 4.05493V3H10V1H14V3H13V4.05493C14.7355 4.24678 16.3223 4.9321 17.6169 5.96747L19.2913 4.28566L20.7087 5.69677L19.0313 7.38152C20.2633 8.92132 21 10.8746 21 13C21 17.9706 16.9706 22 12 22C7.02944 22 3 17.9706 3 13C3 8.36745 6.50005 4.55237 11 4.05493ZM12 20C15.866 20 19 16.866 19 13C19 9.13401 15.866 6 12 6C8.13401 6 5 9.13401 5 13C5 16.866 8.13401 20 12 20ZM13 14V8H11V14H13Z" fill="black"/>
</g>
</svg>
