<svg width="24" height="24" viewBox="0 0 24 24" fill="none" xmlns="http://www.w3.org/2000/svg">
<g id="24 / basic / text-bold">
<path id="Shape" fill-rule="evenodd" clip-rule="evenodd" d="M16.4297 11.348C18.5154 12.1296 20 14.1414 20 16.5C20 19.5376 17.5376 22 14.5 22H6V2H12.5C15.5376 2 18 4.46243 18 7.5C18 8.99801 17.4011 10.3562 16.4297 11.348ZM12.5 11C14.433 11 16 9.433 16 7.5C16 5.567 14.433 4 12.5 4H8V11H12.5ZM8 20V13H14.5C16.433 13 18 14.567 18 16.5C18 18.433 16.433 20 14.5 20H8Z" fill="black"/>
</g>
</svg>
