<svg width="24" height="24" viewBox="0 0 24 24" fill="none" xmlns="http://www.w3.org/2000/svg">
<g id="24 / basic / thumbs-up">
<path id="icon" fill-rule="evenodd" clip-rule="evenodd" d="M22 11.9991C22 10.3166 20.8696 8.9991 19 8.9991H15.927L15.9548 8.92337C15.9826 8.8482 16.0609 8.64173 16.137 8.44121L16.1371 8.44094L16.1375 8.44001C16.2046 8.26299 16.2699 8.09083 16.2971 8.018C16.4872 7.50766 16.626 7.09646 16.7382 6.68923C16.9079 6.07373 17 5.51921 17 4.9991C17 3.52709 16.0919 2.61282 14.7483 2.22159C14.1423 2.04513 13.6148 1.99901 13 1.9991H12.5205L12.2203 2.37298C11.8811 2.79533 11.215 3.55651 10.447 4.43407L10.447 4.4341C9.03026 6.05302 7.2669 8.068 6.57035 9.0825C6.38961 9.02882 6.19817 8.99999 6 8.99999H4C2.89543 8.99999 2 9.89542 2 11V20C2 21.1046 2.89543 22 4 22H6C6.68712 22 7.29331 21.6535 7.65337 21.1257C7.95674 21.3219 8.29522 21.4856 8.66312 21.6173C9.50544 21.9187 10.3408 22.0112 11.0344 21.9985L18 21.9991C20.7551 21.9991 22 17.9427 22 11.9991ZM9.33688 19.7342C8.45197 19.4176 8 18.9013 8 17.9991V11V10.9991C8 10.7589 8.04443 10.5462 8.14171 10.3191C8.31645 9.9111 9.90193 8.10224 11.4047 6.38778L11.4047 6.38774C12.1803 5.5029 12.9338 4.64322 13.46 4.01423C13.7114 4.03309 13.9484 4.07173 14.1891 4.14183C14.7622 4.3087 15 4.54813 15 4.9991C15 5.31568 14.9359 5.70141 14.8101 6.15771C14.7161 6.49868 14.5944 6.85947 14.4229 7.31976C14.3986 7.3851 14.3378 7.5452 14.2733 7.71542L14.2731 7.71587C14.1944 7.92313 14.1102 8.14529 14.079 8.22965C13.9489 8.58127 13.8633 8.84017 13.8047 9.07541C13.5555 10.0755 13.8055 10.9991 15 10.9991H19C19.6912 10.9991 20 11.359 20 11.9991C20 16.7898 19.0151 19.9991 18 19.9991H11L10.9631 19.9997C10.5254 20.0076 9.91062 19.9395 9.33688 19.7342ZM4 20V11H6V20H4Z" fill="black"/>
</g>
</svg>
