<svg width="24" height="24" viewBox="0 0 24 24" fill="none" xmlns="http://www.w3.org/2000/svg">
<g id="24 / basic / toggle-right">
<path id="icon" fill-rule="evenodd" clip-rule="evenodd" d="M17 5H7C3.13401 5 0 8.13401 0 12C0 15.866 3.13401 19 7 19H17C20.866 19 24 15.866 24 12C24 8.13401 20.866 5 17 5ZM2 12C2 9.23858 4.23858 7 7 7H17C19.7614 7 22 9.23858 22 12C22 14.7614 19.7614 17 17 17H7C4.23858 17 2 14.7614 2 12ZM17 16C14.7909 16 13 14.2091 13 12C13 9.79086 14.7909 8 17 8C19.2091 8 21 9.79086 21 12C21 14.2091 19.2091 16 17 16ZM19 12C19 13.1046 18.1046 14 17 14C15.8954 14 15 13.1046 15 12C15 10.8954 15.8954 10 17 10C18.1046 10 19 10.8954 19 12Z" fill="black"/>
</g>
</svg>
