<svg width="24" height="24" viewBox="0 0 24 24" fill="none" xmlns="http://www.w3.org/2000/svg">
<g id="24 / basic / toggle-left">
<path id="icon" fill-rule="evenodd" clip-rule="evenodd" d="M17 5H7C3.13401 5 0 8.13401 0 12C0 15.866 3.13401 19 7 19H17C20.866 19 24 15.866 24 12C24 8.13401 20.866 5 17 5ZM2 12C2 9.23858 4.23858 7 7 7H17C19.7614 7 22 9.23858 22 12C22 14.7614 19.7614 17 17 17H7C4.23858 17 2 14.7614 2 12ZM7 16C4.79086 16 3 14.2091 3 12C3 9.79086 4.79086 8 7 8C9.20914 8 11 9.79086 11 12C11 14.2091 9.20914 16 7 16ZM9 12C9 13.1046 8.10457 14 7 14C5.89543 14 5 13.1046 5 12C5 10.8954 5.89543 10 7 10C8.10457 10 9 10.8954 9 12Z" fill="black"/>
</g>
</svg>
