<svg width="24" height="24" viewBox="0 0 24 24" fill="none" xmlns="http://www.w3.org/2000/svg">
<g id="24 / time / watch">
<path id="icon" fill-rule="evenodd" clip-rule="evenodd" d="M15 1H9C8.55352 1 8.16113 1.29598 8.03848 1.72528L6.85266 5.87564C5.10842 7.34315 4 9.54213 4 12C4 14.4579 5.10842 16.6569 6.85266 18.1244L8.03848 22.2747C8.16113 22.704 8.55352 23 9 23H15C15.4465 23 15.8389 22.704 15.9615 22.2747L17.1473 18.1244C18.6513 16.8591 19.6825 15.05 19.9381 13H21V11H19.9381C19.6825 8.95004 18.6513 7.14095 17.1473 5.87564L15.9615 1.72528C15.8389 1.29598 15.4465 1 15 1ZM12 4C12.9329 4 13.8284 4.15967 14.6609 4.45318L14.2457 3H9.7543L9.33911 4.45318C10.1716 4.15967 11.0671 4 12 4ZM9.7543 21L9.33911 19.5468C10.1716 19.8403 11.0671 20 12 20C12.9329 20 13.8284 19.8403 14.6609 19.5468L14.2457 21H9.7543ZM18 12C18 15.3137 15.3137 18 12 18C8.68629 18 6 15.3137 6 12C6 8.68629 8.68629 6 12 6C15.3137 6 18 8.68629 18 12ZM13 11H15V13H11V8H13V11Z" fill="black"/>
</g>
</svg>
